<svg id="Layer_1" data-name="Layer 1" xmlns="http://www.w3.org/2000/svg" viewBox="0 0 283.46 283.46"><defs><style>.cls-1{fill:#e1a95f;}</style></defs><title>Favicon</title><path class="cls-1" d="M141.73.46A141.27,141.27,0,1,0,283,141.73,141.27,141.27,0,0,0,141.73.46Zm-6,208.76H100.83V174.3h34.92Zm0-41.91H100.83V132.39h34.92Zm41.91,41.91H142.74V174.3h34.92Zm0-41.91H142.74V132.39h34.92Zm73.23-1.56a10.09,10.09,0,0,1-7.16-3l-102-102-102,102a10.1,10.1,0,0,1-14.31,0,10.13,10.13,0,0,1,0-14.29L141.66,32.24l.08.08.08-.08L258,148.49a10.12,10.12,0,0,1-7.15,17.26Z"/></svg>