<svg id="Layer_1" data-name="Layer 1" xmlns="http://www.w3.org/2000/svg" viewBox="0 0 1080 1080"><defs><style>.cls-1{fill:#C9A44C;}</style></defs><title>Icons</title><path class="cls-1" d="M220.85,726.66c-12.2-14.87-13.38-30.32-13.29-46.45.32-56,.1-111.94.14-167.9,0-36.88,22.77-59.67,59.73-59.77,37.51-.1,75,0,112.52,0h11.3c-13.88-17-13-35.51-12.9-54,.18-53.62,0-107.25.07-160.87,0-35.49,22.7-58.6,58-58.68q103.73-.22,207.46,0c35.34.07,58.07,23.1,58.11,58.53.06,54.5-.14,109,.1,163.51.08,17.7.33,35.2-13,51.51h11.25q56.7,0,113.4,0C852,452.58,874.49,475,874.51,513c0,56.55-.17,113.11.13,169.66.08,15.33-1.71,29.77-12.49,43,7,.85,12.92,1.4,18.78,2.29,44.19,6.73,74.8,45.69,72.61,92.33-2,42.27-38.1,78.14-81,80.44-3.51.19-7,.31-10.54.31q-321.74,0-643.49.08c-37.06,0-65.5-15-82.51-48-28.94-56.24,10.61-123.37,73.8-126.46C212.7,726.54,215.61,726.66,220.85,726.66Zm107-253.28c-2.35-.34-3.21-.57-4.07-.57q-28.13-.06-56.26-.07c-26.38,0-40.16,13.68-40.17,39.92q0,86.58,0,173.16c0,26.87,13.7,40.69,40.4,40.7q101.09,0,202.17,0c28,0,41.48-13.39,41.49-41.41q0-85.7,0-171.4a74.23,74.23,0,0,0-1-13.11c-2.49-13.72-14-26.42-27.62-27.05-23.62-1.1-47.33-.3-72.14-.3,0,17.81,0,35.31,0,52.81,0,15-5.5,19.23-18,11.58-16-9.77-30.19-9.68-46.24-.08-13,7.76-18.45,3.45-18.48-12.09C327.83,508.26,327.85,491,327.85,473.38Zm343.75-.64c-20.67,0-40.24,0-59.81,0-27.63,0-40.9,13.26-40.92,40.94q-.06,85.7,0,171.41c0,2.93,0,5.87.27,8.78,1.81,19,15.85,32.52,35,32.57q106.8.27,213.6,0c19.29-.06,34.78-14.45,34.92-33.53.46-62.11.37-124.23.05-186.35-.08-16.36-12.3-31.86-27.71-32.81-23.83-1.47-47.81-.39-72.23-.39-.15,3-.39,5.55-.39,8.12,0,15.53.08,31.06-.06,46.59-.11,12.23-5.63,15.57-16.94,10.49-5.6-2.52-11.32-4.84-16.7-7.79s-10.32-2.81-15.75.06A200,200,0,0,1,685,540c-7.41,2.93-12.73-.6-13.29-8.57-.31-4.37-.1-8.79-.1-13.18C671.59,503.35,671.59,488.49,671.59,472.74Zm-172.81-274c-21.67,0-42.12-.08-62.58,0-23.39.11-38,14.42-38,37.79q-.21,89.24,0,178.49c.06,22.9,14.57,37.41,37.38,37.45q104.63.18,209.26,0c22.82,0,37.19-14.53,37.45-37.42.17-14.65,0-29.31,0-44,0-44.84.1-89.68,0-134.52-.08-23-14.59-37.6-37.13-37.82-11.72-.12-23.45,0-35.17,0H581.6c0,19.13.09,37,0,54.85-.09,13.16-5.93,17.54-17,10.71-16.8-10.41-32-10.29-48.79,0-11.13,6.81-16.93,2.52-17-10.62C498.7,235.78,498.79,217.91,498.79,198.72ZM563.6,726.49c-8.73-12.39-12.75-24.54-12.72-38.15.13-59.41-.37-118.82.46-178.22.15-10.58,5.46-21.1,8.5-31.62a33.62,33.62,0,0,1,2.39-5H518.87c11.17,14.23,12.62,29.62,12.52,45.73q-.46,76.82,0,153.64c.08,18.49.63,36.91-12.34,52.73a18.59,18.59,0,0,0,3.38.88C535.54,726.5,548.7,726.49,563.6,726.49ZM807.77,852a38.14,38.14,0,1,0-38.26-37.63A38.21,38.21,0,0,0,807.77,852Zm-535.08,0a38.08,38.08,0,0,0,38.18-37.74c.25-21.07-17.16-38.56-38.36-38.54a38.14,38.14,0,1,0,.18,76.28Zm394.78-38.4A38.14,38.14,0,1,0,630.1,852,38.09,38.09,0,0,0,667.47,813.57Zm-178.28.07a38.14,38.14,0,1,0-76.27.49,38.14,38.14,0,0,0,76.27-.49Z"/><path class="cls-1" d="M308.91,646.49q-20.64,0-41.29,0c-6.79,0-12.47-1.69-13.13-9.67-.53-6.45,4.5-10.38,13.3-10.4,27.53-.09,55.05,0,82.58-.05,6.92,0,12.37,2,13.18,9.76.66,6.36-4.44,10.24-13.35,10.33C336.44,646.59,322.67,646.5,308.91,646.49Z"/><path class="cls-1" d="M292.34,691c-8.79,0-17.58.05-26.37,0-6.86-.06-11.59-3.17-11.4-10.4.18-6.84,5-9.43,11.4-9.43q27.25,0,54.51,0c6.42,0,11.27,2.72,11.44,9.45.18,7.12-4.56,10.35-11.45,10.39C311.1,691,301.72,691,292.34,691Z"/><path class="cls-1" d="M652.74,646.5c-13.77,0-27.53.09-41.3,0-9.24-.08-13.77-3.5-13.37-10.16.53-8.65,6.71-9.93,13.73-9.92,26.95,0,53.89,0,80.84,0,9.62,0,14.58,3.63,14.46,10.24s-4.88,9.78-14.82,9.83C679.1,646.55,665.92,646.5,652.74,646.5Z"/><path class="cls-1" d="M636.88,691c-9.09,0-18.17.07-27.26,0-6.72-.07-11.59-2.76-11.53-10.22.06-7.09,4.84-9.55,11.16-9.58,18.17-.08,36.34-.05,54.51,0,6.77,0,11.83,2.76,11.61,10.12S670,691,663.26,691C654.47,691,645.68,691,636.88,691Z"/><path class="cls-1" d="M479.45,372.72H438.16c-6.89,0-12.56-2.06-12.65-10.06-.09-8.18,5.79-10,12.59-10q41.73,0,83.46,0c6.93,0,12.79,2.21,12.77,10s-5.71,10.13-12.71,10.12C507.57,372.69,493.51,372.72,479.45,372.72Z"/><path class="cls-1" d="M463.63,417c-9.08,0-18.17,0-27.25,0-6.57,0-10.88-3-10.89-9.86s4.34-9.75,10.94-9.74q27.69,0,55.39,0c6.7,0,11,3.26,11,9.8s-4.39,9.84-11,9.82C482.38,416.93,473,417,463.63,417Z"/></svg>