<svg id="Layer_1" data-name="Layer 1" xmlns="http://www.w3.org/2000/svg" viewBox="0 0 1080 1080"><defs><style>.cls-1{fill:#C9A44C;}</style></defs><title>Icons</title><path class="cls-1" d="M88.46,442c8.73-9.11,17.21-18.48,26.36-27.16,2.44-2.31,6.82-3.16,10.44-3.54,29.37-3.13,47.75-22.42,49.52-52,.87-14.53,4.79-28.6,16.14-38,28.52-23.52,57.45-46.61,87.14-68.63,18.79-13.94,42.11-16,64.56-18.41a445.07,445.07,0,0,1,174.48,15.64c1.68.5,3.28,1.25,5.3,2v20.41c-19.24-2-38.07-4.59-57-5.81-33-2.12-65.93-2.42-97.5,9.49-7.3,2.76-14.05,7.2-20.69,11.44-8.39,5.36-10.36,13.69-7,22.42a84.12,84.12,0,0,0,11.19,19.72c6.5,8.69,14,16.63,21,24.93,10,11.84,9.85,18.6-.76,29.76-1.38,1.45-2.71,3-3.61,3.95L470.89,491,484,478.85l39.64,44.39,82.29-101.11L670.73,482c4.94-2.25,11.18-6.45,18-7.95,15.1-3.32,28.3,1.11,39.33,12.35,8,8.16,16.2,16.28,25.11,23.42,14.93,12,30.56,12.24,47.52,2.74,7.8-4.37,17.5-6.56,26.53-7.25,14.12-1.08,22.16,9.21,30.94,18.79,8.58,9.36,9.8,19.14,7.66,31.29l-16.79-6.72v17.74l-17.46-7.13,1.16,18.44-17.09-7.25v18.16l-17.31-7.41v18.11l-17-7.13v18.08l-17-7.23v18l-17.53-7.29,1.09,18.2-17.22-6.74V643l-17.43-7.05v17.88l-17.12-7.18.93,18.24-16.89-6.81c-1.91,7.89-.07,13.45,5.71,19,32.55,31.05,64.72,62.51,97.06,93.79,2.51,2.43,5.34,4.52,7.41,6.26l-90,90L579.17,733.55,577.3,741l-15.87-6.67v18.08L544.14,745v18l-17.62-7.18.92,18.22L510.11,767v17.67l-17.26-6.81v17.7L476.27,789v17.9l-16.74-7.11v18.06l-17.83-7.49.8,18.22-17.3-6.9V839.5l-16.9-7v17.71l-16.87-6.58v17.75l-17.08-6.91v17.83l-17-7.16v18.12l-16.82-7.12v18l-17.27-7v18.26c-11.11-3.4-21.46-6.4-31.67-9.83-2-.67-3.69-2.78-5.06-4.58q-9.35-12.28-18.41-24.77c-8.3-11.44-8.17-18.38.68-29.29q92.57-114,185.21-228c1.83-2.25,3.59-4.57,5.68-7.24L412.85,550l12.53-13.45L322.79,434.06c-13.76,9.92-17.18,9.63-31.2-2.15C278.84,421.2,264.71,413,248.2,409.46c-10.2-2.21-19.43-.65-26.83,7s-15.47,14.82-21,23.63c-4.8,7.66-8.37,17.19-8.92,26.11-.59,9.71-3.37,16.76-10.45,23-6.17,5.42-11.65,11.63-17.65,17.27-5.82,5.48-11.17,5.88-17.41-.47-18.9-19.24-38.3-38-57.51-56.94Q88.46,445.54,88.46,442ZM306.18,829.64a16.41,16.41,0,0,0-16.74,16.71,16.85,16.85,0,0,0,16.74,16.93,17.29,17.29,0,0,0,16.9-16.94A16.78,16.78,0,0,0,306.18,829.64Z"/><path class="cls-1" d="M839,174.59c2,11.6,5.79,21.07,4.82,30-2.37,22,4.15,41.23,16.53,58,17.77,24.05,37.24,46.87,56.5,69.78,8.49,10.11,18.26,19.14,27.42,28.69,8.29,8.64,18.11,13.85,30.36,13.93,7.75.06,13.48,3.43,16.87,11.33l-41.42,43c-18.17,18.84-36.26,37.75-54.53,56.48-12.56,12.87-28.46,14.09-45,11.94-6.39-.83-12.65-2.71-19-3.58-13.2-1.78-25.94-.19-37.11,7.59s-22.13,7.32-32.53-.77A159.8,159.8,0,0,1,741,482.1c-18.66-20.76-40.54-26.79-66.8-16.67-1.86.72-5.34.19-6.66-1.14C647.74,444.24,628.17,424,608,403.17c6-7,11.62-13.7,17.34-20.31,17.9-20.68,35.92-41.24,53.68-62,5.54-6.49,11.81-9.78,20.62-9.63a19.33,19.33,0,0,0,12.48-4.8c17.62-16.85,35.11-33.87,51.88-51.55,22.46-23.67,44.23-48,66.33-72C832.27,180.74,834.48,178.9,839,174.59ZM742.39,329.93c3.67,6.74,6.3,14.39,11.2,20.08,28.4,33,57.31,65.49,86.11,98.1,14.39,16.3,34.29,17.31,50.58,2.75,15.93-14.24,17.2-34,3.19-49.88l-85.67-97.32c-11-12.46-23.27-15.85-37.84-10.42C754.58,299,744.21,313.4,742.39,329.93Zm-94.73,57.9h28.44c-2.39-8.24-7.4-11.88-14.93-11.61C654.15,376.47,649.34,379.89,647.66,387.83Zm-.09,6.15c1.95,7.89,6.71,11.32,13.7,11.54,7.49.24,12.41-3.43,14.84-11.54Zm136.63,61.36c-1.84-8.4-6.74-11.67-13.85-11.78-7.59-.11-12.3,3.76-14.68,11.78Zm-28.55,6.15c2.9,8.12,8,12,15.43,11.51,6.46-.39,11.39-3.69,13.09-11.51Z"/><path class="cls-1" d="M798.84,787.45l28.75,46.87L757,904.89l-46.8-28.68Z"/></svg>