<svg id="Layer_1" data-name="Layer 1" xmlns="http://www.w3.org/2000/svg" viewBox="0 0 1080 1080"><defs><style>.cls-1{fill:#C9A44C;}</style></defs><title>Icons</title><path class="cls-1" d="M553.24,625.11c0-3.57,0-6.86,0-10.14q0-79.43,0-158.87c0-21.84,10.55-32.25,32.57-32.26,30.22,0,60.45,0,92,0,0-3.5,0-6.45,0-9.39,0-20.73-.1-41.47,0-62.2.11-17.56,11.27-29.25,28.72-29.37q56.74-.38,113.47,0c16.35.11,27.19,10.84,28.48,27.12.24,3.07.15,6.16.15,9.24q0,127.35,0,254.69c0,3.59,0,7.18,0,11.8,11.61,0,22.46,0,33.3,0,24.82.11,37.68,19.59,27.71,42.34-12.46,28.44-25.2,56.76-37.8,85.14-1.23,2.77-2.34,5.58-3.67,8.76,10.48,6.75,21.91,8.8,33.62,9.93,2.23.21,4.48.06,6.72.2,8.21.49,13.19,5.12,13.21,12.19,0,7.51-5.2,12.23-14,12.14-17.31-.18-33.95-3.52-49.37-11.68-5.68-3-11.29-6.22-16.66-9.75-36.67-24.09-73.28-24.25-110-.12-13.89,9.12-28.47,16.72-45.14,19.49-29.13,4.83-56.9,1.71-82.57-13.94-4.54-2.77-9-5.6-13.6-8.35-33.57-20.3-67.62-21.06-100.53.28-26.87,17.42-55,27-87.21,23.42-19.14-2.13-36.2-9.15-52.1-19.6-13.91-9.14-28.34-16.7-45.43-18.27-21.29-2-41.29,1-59.56,12.71-16.55,10.57-33.16,21.1-53.15,23.94a155.35,155.35,0,0,1-21.73,1.77c-7.67,0-12.4-5-12.43-11.93S163,773,170.54,772.08c9.14-1.08,18.32-2.09,27.34-3.85,4.55-.89,8.79-3.38,14.14-5.55-1.39-3.43-2.52-6.43-3.82-9.36-12.48-28.13-25.06-56.21-37.47-84.36-10.51-23.84,2.07-43.15,28-43.22,10.57,0,21.14,0,32.6,0,0-7.6,0-14.25,0-20.91,0-33.32,7.87-44.54,39.43-55.46,0-3.1,0-6.42,0-9.74,0-54.64.12-109.27-.13-163.91,0-8,2.51-13.62,8.55-18.87q80.85-70.33,161.21-141.22c2.65-2.34,4.51-6.85,4.73-10.47,1.46-24,17.53-43.65,41-49.41,22.71-5.57,47.17,5.32,58.65,26.12a51.8,51.8,0,0,1-9.61,63.21A15.24,15.24,0,0,0,530,257.43q.34,35.72,0,71.45c-.06,5,1.26,7.87,5.75,10.63,18.16,11.14,25.16,34.78,16.21,52.81-11.59,23.34-43.21,28.16-60.91,9.29-6-6.39-6.51-13.45-1.37-18.58,4.92-4.92,11.68-4.79,17.92.89,5.06,4.62,11.08,7.43,16.52,3,3.71-3,6.83-9,6.87-13.73.07-6.85-4.19-12.67-11.7-14.63-11.9-3.12-13.25-4.79-13.26-17.39,0-26.58,0-53.17,0-82.26-3.94,2.27-7,3.17-8.8,5.2Q438.1,332.41,379.31,401a12.54,12.54,0,0,0-2.68,7.54q-.23,68.93-.07,137.85a14.9,14.9,0,0,0,.41,2.71c6.31,2.73,12.6,4.59,18,7.94,13.29,8.3,20.12,20.75,20.56,36.42.29,10.33.05,20.68.05,31.65ZM233,749.24c2.1-1,3.37-1.54,4.56-2.21,24.48-14,50.77-16.3,78.08-12.18,19.67,3,35.86,13.48,52.47,23.41,32.14,19.2,64.68,19,97.08.27,6.06-3.5,11.92-7.33,17.94-10.9,23.74-14.05,49.47-16.69,76.26-13.28,20.33,2.59,37.52,12.45,54.22,23.41,14.7,9.65,30.82,13.94,48.38,14.43,22.68.64,42-7.7,60.22-20.08,26.16-17.77,55.23-22.76,85.84-17,13.26,2.49,25.93,8.05,39.61,12.46l22.61-50.84q8.52-19.17,17.06-38.33c2.55-5.7.92-8.59-5.47-8.48-1.68,0-3.36,0-5,0H197.72c-5.84,0-7.63,2.7-5.26,8C205.85,688.09,219.25,718.23,233,749.24ZM577.77,625.13H823.5V549.57H577.77ZM823.84,448.41a38.5,38.5,0,0,0-4-.48q-117.22,0-234.44-.12c-6.38,0-8.25,2.71-8.15,8.64.24,14,.08,28,.07,42,0,8.58,0,17.16,0,25.78h246.5Zm.33-25c0-23-.26-45.38.15-67.7.13-7.29-2.73-9-9.38-8.95q-51.6.34-103.21,0c-7.13-.06-10,1.93-9.88,9.46.39,20.13.11,40.28.16,60.41,0,2.16.42,4.32.67,6.79ZM351.89,549.35c0-5.59,0-10.82,0-16.05q0-65.51,0-131c0-11.29-5.46-19.15-15.19-19.73-13.58-.81-27.24-.2-41.27-.2v167Zm39.06,75.88c0-11,.43-21.63-.12-32.17-.59-11.21-8.18-18.78-19.6-18.91-31.87-.36-63.75-.3-95.62,0-9.58.09-18,6.19-18.83,14.9-1.17,12-.29,24.24-.29,36.19ZM368.72,375.84,472.58,255.17,453,237.26,317.25,356.15l.83,2.07C337.29,356.64,355.48,358.06,368.72,375.84ZM526.87,207.62a28.63,28.63,0,0,0-28.46-28.95,28.72,28.72,0,1,0-.3,57.43A28.27,28.27,0,0,0,526.87,207.62Z"/><path class="cls-1" d="M297.11,797.56c22.77-.43,45.54,8,66.22,22.51,19.51,13.67,41.06,18.27,64.51,16.11a83.49,83.49,0,0,0,36.92-12.68c15.44-9.6,30.66-19.52,49-23.16,31.22-6.21,60.38-2,88.05,14.44,13.07,7.78,26.85,15.72,41.36,19.43,23.7,6.06,47.25,2.79,68.49-11,18.16-11.76,36.72-22.25,59-24.75,28.63-3.21,55.31,1.58,79.36,17.65,18,12.06,36.85,20.86,59.18,20.78,8.46,0,12.91,5.4,12.57,12.62-.33,7-5.47,11.53-13.77,11.53a108.85,108.85,0,0,1-57.46-16c-14.3-8.67-27.89-18.88-45.12-21.47-24-3.61-46.92-1.66-67.7,12.24-19.77,13.22-40.55,23.6-64.92,25.11-27.81,1.73-53.48-4.45-76.25-20.6-23.82-16.9-50.11-22.81-78-15.73-13.2,3.34-25.75,10.65-37.55,17.87-21.74,13.31-44.87,19.66-70.25,18.58a112.2,112.2,0,0,1-61.05-21C326,823.46,300,817.68,272.31,824.57c-13,3.22-25.23,10.36-36.92,17.24-15.9,9.36-32.24,16.75-50.74,18.56a86.39,86.39,0,0,1-15.07.59c-6.65-.52-10.88-4.46-11.23-11.35s3.2-11.33,10-12.36,13.91.13,19.94-2.18c14-5.33,28.06-11,40.86-18.67C249.41,804.29,270.66,797.22,297.11,797.56Z"/><path class="cls-1" d="M294.08,862.47c23.58-.9,45.35,6.26,65.11,19.66,17.3,11.73,35.69,19.58,57.06,19.37,17.49-.17,33.79-4,48.67-13.45,15.59-9.94,31.18-20,49.83-23.35,31.48-5.65,61.3-2,88.62,15.91,14.32,9.39,28.87,18.08,46.57,20,21.84,2.35,42.05-1.06,61.35-12.25,14.65-8.49,29.72-17.47,45.8-22,32.37-9.13,63.83-4.43,92.54,14.18,14.87,9.64,29.89,18.86,48.21,20.25,3.91.3,7.83.4,11.73.73,7.58.64,12.27,5.41,12.18,12.27-.09,7-4.68,11.55-12.57,11.75A104.67,104.67,0,0,1,853,911.16c-6.78-3.93-13.23-8.43-20.09-12.22-30.9-17.07-62.07-17.39-92.71.19C722.43,909.31,705.58,921,684.68,924c-27.95,4-54.74,1.28-79.45-13.6-2.88-1.73-5.8-3.39-8.59-5.26-37.61-25.22-75.32-25.57-112.84-.07-24,16.28-50.21,22.51-78.89,20.15-19.79-1.63-37.57-8.54-53.84-19.51-16.82-11.34-34.68-19.15-55.43-19.23-18.38-.08-35.5,3.81-51,14-16.7,10.93-33.81,21.09-54.11,23.74a154.74,154.74,0,0,1-20.09,1.27c-7.19,0-11.54-3.95-12.1-11.26-.53-6.86,4.3-12.64,11.69-12.56,22.3.26,41.35-8.19,59.36-20.34A106.92,106.92,0,0,1,294.08,862.47Z"/><path class="cls-1" d="M335.54,418.35a12.1,12.1,0,1,1-11.91-12.61A12.26,12.26,0,0,1,335.54,418.35Z"/><path class="cls-1" d="M510.27,207.24a12.06,12.06,0,0,1-24.11.89,12.14,12.14,0,0,1,11.63-12.74A11.92,11.92,0,0,1,510.27,207.24Z"/></svg>