<svg id="Layer_1" data-name="Layer 1" xmlns="http://www.w3.org/2000/svg" viewBox="0 0 1080 1080"><defs><style>.cls-1{fill:#C9A44C;}</style></defs><title>Icons</title><path class="cls-1" d="M363.67,527.23H308.3c-4.25,0-8.5-.06-12.75,0-19.49.34-30.71,11.41-30.89,30.85-.18,19.75,0,39.51,0,59.26,0,2.67,0,5.34,0,9.61-2.84-2.59-4.42-4-6-5.45-14.4-13.55-31.36-21.11-51.22-21.77-19.17-.63-27.53-9.26-27.54-28.58q0-32.26,0-64.51c0-16.71,9-25.91,25.73-26.62,33.83-1.45,58.08-17.88,71.08-48.74,13.14-31.2,7.55-60.2-15.32-85.48-11.68-12.91-11.46-25.08,1-37.53q23-23.11,46.14-46.15c12.31-12.27,24.67-12.47,37.55-.78,23.3,21.15,50.19,27.48,79.93,17.35s47.55-31.14,53.27-62.12c.77-4.15.71-8.45,1-12.69.94-14.8,10.44-24,25.22-24.08,22.5-.1,45-.06,67.51,0,17.16,0,26.28,8.94,26.93,26.19,1.65,43.82,36.58,77.47,80.47,77.23,20.07-.11,37.57-7.19,52.44-20.7s26-13.19,40.24,1.08q22.55,22.53,45.09,45.09c11.81,11.89,12,24.62.63,37-21.24,23.24-27.68,50.06-17.61,79.85,10,29.63,31,47.68,61.93,53.47,4.39.82,8.95.75,13.43,1.07,14.26,1,23.52,10.63,23.6,24.93q.2,34.88,0,69.76c-.09,14.33-9.38,24.53-23.68,24.71-23.63.31-43.13,9.22-60.46,27.42-.23-3.74-.52-6.23-.53-8.73,0-19.5,0-39,0-58.51-.09-21.37-11-32.36-32.32-32.45-22.23-.09-44.45,0-67.24,0-5.26-52.54-27.73-95.46-69.43-127.42-31.79-24.36-68-35.75-108.2-35.85C452.73,363.76,369.77,432.7,363.67,527.23Z"/><path class="cls-1" d="M539.49,855.18q-139.14,0-278.27,0c-41.82-.06-73.58-26.66-80.68-67.05-7.54-43,24.93-86.19,68.24-90.73a144,144,0,0,1,15-.88q276.4-.07,552.8,0c43.66,0,75.64,26.05,82.91,67.25,8,45.31-28.09,90.52-74.18,91.14-60.49.82-121,.29-181.51.32Q591.62,855.2,539.49,855.18Zm.18-31.51q99.41,0,198.81,0c28.26,0,56.53.38,84.77-.21,28.75-.6,50.28-28.49,44.45-56.54-5-24.26-24-39-50.55-38.94-86.52.14-173,.51-259.57.56-62.52,0-125-.29-187.55-.42-36.26-.08-72.52-.27-108.78-.11-27.73.12-48.93,19.8-49.83,45.69-1,28.16,20.16,49.89,49.16,49.93Q400.12,823.8,539.67,823.67Z"/><path class="cls-1" d="M259.61,876.51h561c0,5.66.72,11.21-.3,16.41-.52,2.65-3.86,5.27-6.56,6.79-1.92,1.07-4.89.3-7.39.3H276.7c-17.54,0-17.55,0-17.36-17.49C259.36,880.78,259.49,879,259.61,876.51Z"/><path class="cls-1" d="M320.6,548.25c0,13.08,0,25.27,0,37.45,0,12.64,2.89,15.56,15.26,15.58,9.5,0,19,.06,28.49,0,10-.07,13.61-3.59,13.66-13.45.07-12.93,0-25.86,0-39.41,9.8,0,18.75-.18,27.68.07,4.8.14,7.06,3.3,7.06,8q0,55.49,0,111c0,6.75-4.64,8-10.24,8q-39.37-.07-78.74,0c-9.5,0-19-.09-28.49,0-6.57.07-9.64-3-9.63-9.55q0-54,0-108c0-6.5,3-9.73,9.54-9.68C303.35,548.3,311.53,548.25,320.6,548.25Z"/><path class="cls-1" d="M702,548.25c0,13.75,0,26.45,0,39.15,0,10.4,3.5,13.83,14,13.88,10,.05,20,.07,30,0s13.36-3.58,13.42-13.65c.08-12.7,0-25.41,0-39,10,0,19.42-.51,28.74.18,6.3.47,6.25,6.12,6.25,11q0,43.12,0,86.24,0,10.12,0,20.25c0,6.12-3,9.2-9.21,9.19q-54.37,0-108.73,0c-6.68,0-9.28-3.3-9.26-9.81q.16-53.62,0-107.23c0-6.91,2.76-10.25,9.73-10.16C684.84,548.32,692.82,548.25,702,548.25Z"/><path class="cls-1" d="M511.3,548.3c0,13.79,0,26.48,0,39.18,0,10.4,3.47,13.74,14,13.8,9.5,0,19,0,28.49,0,11.79,0,14.83-3.15,14.85-15.25s0-24.4,0-37.45c10,0,19.44-.52,28.73.38,2.27.22,5.81,5.09,5.84,7.85.39,36.74.27,73.48.24,110.22,0,5.46-2.89,8.34-8.37,8.35q-55.11,0-110.22,0c-5.46,0-8.4-2.81-8.4-8.31q0-55.11,0-110.22c0-5.46,2.76-8.44,8.23-8.51C493.18,548.22,501.65,548.3,511.3,548.3Z"/><path class="cls-1" d="M550.71,425.14v51.91h8.07q35.25,0,70.51,0c11.43,0,14.72,3.29,14.76,14.7q.09,22.5,0,45c0,9-3.69,13.59-10.36,13.61s-10.47-4.73-10.59-13.53c-.17-12.24-.2-24.49-.33-36.73,0-.43-.43-.85-.87-1.66h-165c0,11.07,0,22,0,32.84a57.53,57.53,0,0,1-.67,11.18c-1.11,5.34-5,8.08-10.37,7.82s-9.44-3.29-9.54-8.73c-.34-18.49-.55-37,.08-55.47.25-7.5,6.67-9.06,13.24-9q35.25.05,70.51,0h9.35V464.33c0-8-.39-16,.1-24,.57-9.28.1-16.47-10.53-21.23-9.63-4.32-14.38-14.34-15.36-25.15-.16-1.72,2.14-5,3.79-5.36a154.32,154.32,0,0,1,64.71-.33c3.86.78,4.74,2.34,4.29,6.12C575,407.31,567.25,416.77,550.71,425.14Z"/><path class="cls-1" d="M342.25,548.58h14.32v31.14H342.25Z"/><path class="cls-1" d="M547.07,580H532.8V548.88h14.28Z"/><path class="cls-1" d="M723.6,548.56h14.27v31.13H723.6Z"/><path class="cls-1" d="M486.71,749.4H593.2c-9.74,17.88-9.87,35.28.07,52.94H486.81C496.46,784.77,496.67,767.38,486.71,749.4Z"/><path class="cls-1" d="M299.52,749.4H406c-9.42,17.56-10,34.94.15,52.76H299.54C309.63,784.58,309.51,767.22,299.52,749.4Z"/><path class="cls-1" d="M674.4,802.33c9.32-23.6,9.32-28.14.1-52.79H779.58c-9,24.08-9.28,27.87,0,52.79Z"/><path class="cls-1" d="M419.74,775.49A26.71,26.71,0,0,1,446.63,749a27,27,0,0,1,26.6,26.9,26.74,26.74,0,1,1-53.48-.43Zm27,10.68a10.35,10.35,0,0,0,10.08-10.82,10.7,10.7,0,0,0-10.38-9.92,10.3,10.3,0,0,0-10.3,10.62A10,10,0,0,0,446.77,786.17Z"/><path class="cls-1" d="M847.57,775.91a26.88,26.88,0,1,1-53.76-.42,26.88,26.88,0,0,1,53.76.42Zm-26.62-10.72a10.68,10.68,0,0,0-10.68,10.25A10.53,10.53,0,0,0,820.49,786a10.35,10.35,0,0,0,10.61-10.13A10.65,10.65,0,0,0,820.94,765.19Z"/><path class="cls-1" d="M660.24,776.75c-.39,14.8-12.35,26.11-27.34,25.84a26.58,26.58,0,0,1-26.09-27.18,26.73,26.73,0,1,1,53.43,1.34Zm-26.49-11.34a10.59,10.59,0,0,0-10.58,10.3,10.27,10.27,0,0,0,10.21,10.47,10,10,0,0,0,10.47-10.11A10.52,10.52,0,0,0,633.75,765.41Z"/><path class="cls-1" d="M259.05,802.59a26.69,26.69,0,0,1-26.62-26.73A27,27,0,0,1,259.12,749c14.76-.18,27.42,12.58,27.07,27.27A26.83,26.83,0,0,1,259.05,802.59Zm10.7-26.82a10.72,10.72,0,0,0-10.59-10.32A10.47,10.47,0,0,0,248.89,776a10.18,10.18,0,0,0,10.49,10.17A10.43,10.43,0,0,0,269.75,775.76Z"/></svg>