<svg id="Layer_1" data-name="Layer 1" xmlns="http://www.w3.org/2000/svg" viewBox="0 0 1080 1080"><defs><style>.cls-1{fill:#C9A44C;}</style></defs><title>Icons</title><path class="cls-1" d="M602.55,468.25c5.64,7.27,10.79,13.66,15.69,20.23,14.91,20,17.7,41.75,6.3,64-11.23,21.89-30.06,32.48-54.83,32.1-1.88,0-3.76,0-5.55,0-8.14,37.91-34.66,54.89-68,52.75-2.72,15.93-9.47,29.91-22.57,40.12s-28.2,14-44.73,12.06c-1.08,4.29-1.79,8.05-3,11.65-7.14,21.46-21.74,35.44-43.76,40.15-22.24,4.75-41.79-1.53-57.13-18.71-6.53-7.31-12.31-15.29-18.4-22.92-39.19,26.62-70.47,26.11-92.83-1.24a58.67,58.67,0,0,1-13.4-33.75c-.86-12.35,1.31-24.51,8.67-34.35s16.5-17.9,25.69-27.62c-12.07-21.12-15.78-46-20.43-70.68-3.79-20.17-13.46-38-26.16-54.14-15.89-20.21-31.65-40.54-47.48-60.8-30.16-38.62-25-81.37,13.52-111.4q75.05-58.56,150.11-117.11c36.44-28.37,79.8-23.05,108.49,13.31,16.1,20.4,32.24,40.77,47.92,61.5,14.39,19,32.71,31.26,56.48,34.5,26.36,3.59,49,14.49,68.2,33.49l40.7-31.72c-12.89-20.81-29.88-35.63-53.31-42.49-14.32-4.19-25.19-12-28-27.74-2.49-14.17,3.32-26.72,15.61-34.3,69.19-42.72,149.87-28,199.72,36.23,27.33,35.23,54.57,70.55,82.53,105.27,4.22,5.24,11.89,8.12,18.45,11,17.68,7.66,28.77,20.48,32.24,39.45,3.61,19.73-2.51,36.52-17.81,49.12q-29.45,24.24-60.15,47c-33.12,24.56-78.89,4.28-83.06-36.69-.95-9.3-3.48-17.22-9.78-24.39-7.92-9-14.91-18.84-23.07-29.29Zm-142.15-17c2.31-15.14,8.34-27.8,19.61-37.41,8.11-6.91,16.55-13.47,25.13-19.8,8.06-5.94,17.87-4.57,23.35,2.7,5.6,7.42,4.35,16.61-3.56,23.24-6.49,5.45-13.34,10.46-20,15.73-13.21,10.49-15.85,25.93-6.57,38.21s25.38,13.87,38.59,3.73q27-20.72,53.69-41.9c13.38-10.65,15.2-25.47,4.92-39q-13.89-18.3-28.32-36.19c-13.05-16.2-29.78-26.49-50.51-29.32-34.6-4.73-62.4-20.65-82.93-49a55.74,55.74,0,0,0-4.42-4.82q-64.25,50.1-127.82,99.65a56.45,56.45,0,0,1-8.7,6.12A16.09,16.09,0,0,1,272,377.37c-5-7.8-3.13-16.33,5.35-23q44.89-35.17,89.92-70.17c13.95-10.88,27.88-21.79,42.3-33.06-8.39-10.75-16.12-21-24.17-30.93-15.93-19.72-39.36-22.44-59.46-7-14.09,10.85-28,21.87-42.05,32.8Q227.59,290,171.31,333.91c-17.8,13.95-22.72,36.14-11.09,53.93,8.2,12.53,18,24,27.51,36.39,11.74-9.15,22.66-18.25,34.26-26.37,4.12-2.88,10.53-5.55,14.79-4.35,4.91,1.37,10,6.39,12.45,11.15,3.23,6.37.2,12.88-5.45,17.41-11.72,9.37-23.57,18.57-35.06,27.6,7.18,10.75,14.45,20.68,20.71,31.21,12.8,21.53,18.06,45.48,21.73,70a93.51,93.51,0,0,0,13.16,36.54c17.68-23.92,28-29.12,60.61-30.92,7.83-36,30.6-53.17,67.46-52.52C400.35,468,422.91,450.53,460.4,451.29ZM577.55,223.58a56.51,56.51,0,0,0,5.23,2.26c26.92,8.12,47.83,24.33,64.7,46.62,19.8,26.17,40.25,51.84,60.44,77.72,13.6,17.43,27.24,34.83,41.16,52.63L813,352.94c-1.19-1.73-1.89-2.86-2.71-3.9Q770.66,298.25,731,247.5c-20.73-26.37-48.08-40.84-81.43-43.46C623.66,202,600.19,209.64,577.55,223.58ZM396.61,682.93c-1.68-4.53-2.4-9.79-5.19-13.47-18.17-23.94-36.48-47.8-55.41-71.14-8.79-10.83-24.61-11.52-35.53-3-10.52,8.19-14,23.72-6,34.51,18.1,24.33,36.89,48.16,55.9,71.8,6.82,8.48,19.34,10.42,29.31,6.2S395.75,694.3,396.61,682.93Zm67.88-52.58c-2.35-5.37-4.07-11.16-7.21-16-4.44-6.86-9.93-13-15-19.49-12.44-15.94-24.67-32.06-37.41-47.76-9.37-11.56-24.34-13.4-36-5.17-11.12,7.88-15.24,23.88-7.09,34.9,18.21,24.58,37.2,48.61,56.42,72.42,6.72,8.32,18.76,10,28.62,6C457,651.12,463.12,642,464.48,630.35Zm67-52.78c-1.48-4.32-2-9.39-4.61-12.84-18.53-24.35-37.11-48.69-56.5-72.36-8.67-10.58-24-10.79-34.87-2.38-10.62,8.25-14.05,23.52-5.92,34.46,18.09,24.33,36.87,48.18,55.9,71.79,7,8.64,19.27,10.5,29.3,6.22S530.72,589,531.5,577.57Zm331.91-180.5c-3-5.81-4.42-10.72-7.49-14.21-7.29-8.3-16.68-8.72-25.28-2Q800,404.74,769.35,428.69c-2,1.61-4.59,3.6-5.18,5.87-1.94,7.44,3.17,19.19,9.35,23.12,7.68,4.88,15.34,4.51,23.51-1.78,18.8-14.49,37.66-28.92,56-44C857.46,408.24,859.93,402.17,863.41,397.07ZM607.18,356,636,400.47l43.19-33.74-32.47-41.56ZM532.92,518.38c6.15,7.74,12.93,17.36,20.85,25.93,9.1,9.84,24.71,10.07,35.07,1.59,9.93-8.13,12.7-23.23,5.51-34.1-5.23-7.92-11.46-15.2-16.88-22.29ZM254,632c-11.93,7.83-22.55,16-20.68,31.91,1.26,10.63,7.33,18.28,17.54,21.7,14.59,4.88,25-2.78,35.08-12.65Z"/><path class="cls-1" d="M810.82,778.12V679.19c-7.52-3.07-15.31-5.52-22.4-9.29-15.68-8.32-26.41-20.74-26.5-39.38s10.44-31.45,26.16-39.63c26.3-13.69,53.18-13.64,79.36.34,15.36,8.2,25.5,20.94,25.5,39.22,0,18-10.12,30.27-25,38.67-7.29,4.12-15.5,6.63-23.81,10.09v98.9c3.14,0,6.28-.06,9.42,0,17.2.4,34.67-.92,51.55,1.64,33.5,5.08,56.5,36.41,53.45,69.88a65.65,65.65,0,0,1-64.15,59.73c-20.51.36-41,.09-61.56.09q-321.36,0-642.72,0c-35.14,0-61.53-21.44-67.69-54.73-7-38.08,22.27-74.73,61.21-76.5,3-.14,6-.11,9-.11H636.74c14.83,0,22.81,5.67,22.93,16.27S651.76,811,637,811Q415,811,193,811c-5.14,0-10.49.22-15.39,1.58A32.28,32.28,0,0,0,154.34,847a33.13,33.13,0,0,0,30.35,29.51c2.18.16,4.38.09,6.56.09q348.86,0,697.72-.09A48.8,48.8,0,0,0,905,874.17c14.34-5.1,23-20.64,20.56-35.41a32.71,32.71,0,0,0-32-27.7c-22.16-.29-44.32-.09-66.49-.09q-57,0-114.1,0c-13,0-20.22-5.83-20.36-16.17-.14-10.72,7.16-16.64,20.7-16.65q43.92,0,87.83,0Zm16.85-128.87c9.86-4,19.31-6.58,27.5-11.38,7.13-4.17,6.52-9.73.24-15.29-12.89-11.43-42.86-11.46-55.92-.06-6.34,5.53-7,11.17.09,15.28C808,642.68,817.75,645.34,827.67,649.25Z"/></svg>