<svg id="Layer_1" data-name="Layer 1" xmlns="http://www.w3.org/2000/svg" viewBox="0 0 1080 1080"><defs><style>.cls-1{fill:#C9A44C;}</style></defs><title>Icons</title><path class="cls-1" d="M732.34,822.55c-6,20.31-11.75,40-17.55,59.76-.62,2.1-.66,4.95-2.07,6.1-2.78,2.27-6.34,3.6-9.58,5.32-1.61-3.31-5.07-7-4.49-9.85,2-10.05,5.46-19.83,8.78-31.16-20.41-.39-20.85-14.38-18.68-29.7h-39a38.1,38.1,0,0,0-.65,4.38c-.93,26.37-15.51,40.76-42.07,40.83-54.11.14-108.21,0-162.32,0-66.62,0-133.24.64-199.85-.25-36.89-.5-72.43-9.24-105.82-25.31-13.72-6.61-25.87-15.58-31.61-30.56-6.68-17.43.05-35.34,19.12-48.15,6.91-4.64,8.88-9.54,8.87-17.46q-.33-228-.16-456c0-15,.92-15.88,16-15.88h34.19c0-7.79,0-15.15,0-22.51,0-18.14.24-36.28-.1-54.42-.16-8.57,3.37-11.56,11.75-11.52,48.48.22,97,.13,145.43.07,5.67,0,11.53.27,11.55,7.54s-5.72,7.75-11.45,7.75q-67.09-.08-134.17,0c-2.15,0-4.3.19-7.12.32V224h544.3V201.54h-245c-2.81,0-6.11.88-8.33-.28-3.14-1.63-5.48-4.79-8.16-7.29,2.62-2.53,5-5.49,8-7.43,1.55-1,4.27-.22,6.46-.22H747.23c13.69,0,14.4.71,14.41,14.32,0,24.32,0,48.65,0,73.49H791.8c0-8.78-.16-17.15,0-25.51.33-14.73,8.58-23.12,23.33-23.74,5.93-.25,11.88-.16,17.82-.05,17.13.3,25.36,8.3,25.57,25.36.23,18.14.05,36.28.06,54.42,0,2.78,0,5.55,0,8.07,19.06,6.83,21.93,11,22,31.23,0,9.7.13,19.39,0,29.09-.24,14.94,0,29.16,8.25,43.12,8.16,13.81,7.44,29.92,3.48,45.66a28.87,28.87,0,0,0-.08,14.39q40,138.1,80.42,276.05c4.23,14.48,4.21,14.57-10.48,20.56,0,18.75,0,38,0,57.31,0,16.23.86,17.78-15.17,21.62a19.2,19.2,0,0,0-3.67,1.89c2.39,8.27,4.83,16.29,7,24.38,1.56,5.81,5.44,13.08-3.62,15.58-8.22,2.27-9.25-5.15-10.92-10.84Q894.66,742,853.54,601.34q-8.41-28.77-16.82-57.53a16.24,16.24,0,0,0-3.81-7.25q0,5.11,0,10.21,0,130.42,0,260.83c0,13.78-1.16,14.94-15,14.94C789.5,822.56,761.08,822.55,732.34,822.55Zm-44.28-49.5c-14.39-7-14.34-6.95-9.79-22.54q40-137.09,79.78-274.25a30,30,0,0,0,0-14.38c-3.5-15.38-4.94-31.37,3.14-44.81,8.76-14.57,8.42-29.48,8.35-45,0-9.69,0-19.39,0-29.08,0-18.85,4.11-24.47,21.45-29.74V289.94c-8.89,0-17,0-25.09,0a19.21,19.21,0,0,0-3.43.62c-2.52,19.1-2.52,19.1-22.19,19.1H203.68c-17.5,0-17.5,0-18.49-17.27,0-.54-.51-1.06-1-2H151.54V749.9c3.81-1.29,6.64-2.58,9.61-3.19,26.53-5.46,53-15.09,79.64-15.45,122.56-1.66,245.15-.77,367.74-.7,24.79,0,40.38,15.7,40.56,40.38.09,11.78,0,23.57,0,35.53h39ZM745.9,240.83H201.25v52.63h55.46c0-8-.72-15.54.32-22.82.48-3.33,4-8.15,6.94-8.79,5.74-1.25,7.93,3.46,7.93,8.88,0,7.43,0,14.86,0,22.75h55.92c0-7.66,0-14.77,0-21.88,0-5.12.89-9.85,7.1-10.08,6.62-.24,8.22,4.42,8.19,10.07,0,7.34,0,14.68,0,21.86h55.78c0-7.7,0-14.82,0-21.94,0-5.07.92-9.84,7.19-10,6.67-.17,8.15,4.6,8.17,10.16,0,7.11,0,14.23,0,21.67h55.53c0-7.54,0-14.37,0-21.2,0-5.33.8-10.6,7.62-10.65s7.86,5,7.9,10.46c0,7.09,0,14.17,0,21.25H540.7c0-7.4,0-13.95,0-20.5,0-5.66.71-11.31,8.08-11.19,6.82.11,7.42,5.53,7.46,10.81.05,7,0,14.06,0,21.12H611.8c0-8-.75-15.57.34-22.85.5-3.33,4.16-8.06,7.16-8.74,5.92-1.34,7.79,3.66,7.83,8.92.06,7.42,0,14.85,0,22.64h55.77c0-6.52-.07-12.4,0-18.28s-1.23-13.22,7.45-13.5c8.94-.29,7.7,7.17,7.8,13,.1,6.16,0,12.31,0,18.67h47.7Zm71.44,565.93V536.92l-1.55-.36-78.9,270.21Zm140.74-49.51L879.82,489.3l-36.21,23.18,74.82,256.28ZM731.92,768.87l74.86-256.43-36.25-23.12L692.33,757.16Zm-234.56,13c-3-.15-4.8-.32-6.63-.32q-123.37,0-246.75,0a29.31,29.31,0,0,0-4.68.14c-8.68,1.42-17.48,9.86-17.85,17-.36,6.91,7.05,15.53,15.76,17.75,3,.75,6.2.54,9.32.54q120.09,0,240.18,0h10.65Zm64.41,70.92c16.67,0,32.83.24,49-.08,13.29-.26,22.61-9,22.93-22.3.5-20.61.4-41.24,0-61.86-.19-11.14-6.89-20.88-17.14-21.62-18.15-1.3-36.46-.36-54.82-.36ZM825,388.92a54.08,54.08,0,0,0-.1,108.16c29.69.26,54.56-24.4,54.59-54.12S855,388.84,825,388.92ZM497.53,833a52.88,52.88,0,0,0-5.44-.64q-125.11,0-250.22.16c-5,0-10.4,2.12-15,4.47-6.94,3.55-7.1,8.16-.16,11.27a47.67,47.67,0,0,0,18.74,4.41c80.59.29,161.19.19,241.78.19h10.28Zm-.19-86.33a14.84,14.84,0,0,0-3.17-.85q-126.59-.08-253.17.09c-4.72,0-9.75,2.13-14.09,4.35-6.91,3.54-7.12,8.15-.21,11.3a47.13,47.13,0,0,0,18.7,4.53c80.64.29,161.28.19,241.92.19h10ZM204.82,848.44c1.55-6.13,1.95-11,4-14.92s5.72-6.91,8.62-10.25c-15.3-17.89-15.27-28.06-1.39-46.54l-13.13-25.8c-10.57,3-22.91,6.16-35,10.06-2.08.67-4.54,4.26-4.58,6.54q-.52,31.84,0,63.68c0,2.27,2.47,5.84,4.53,6.51C179.95,841.65,192.29,844.89,204.82,848.44Zm660.33-463.1c0-16.22-.19-31.13.08-46,.14-7.28-3-10.14-10.07-10.06-16.25.19-32.51.07-48.76.05-22.38,0-21.43-1.93-21.33,21.31,0,11.3,0,22.6,0,35.06C812.59,369.37,838.39,369.86,865.14,385.34Zm-351,360.76V852.29h31.18V746.1ZM807.23,313.51h35.71c0-22.05,0-43.55,0-65.05,0-7.53-5.23-9.26-10.8-8-8.4,1.94-22.71-7.07-24.3,7.28C805.47,269.28,807.23,291.26,807.23,313.51ZM939.36,840.29c3.46-4,7-6.13,7-8.38.45-18,.25-35.92.25-55.31l-23.84,7.21Zm-792-65.85C131.94,779,120,790.5,120.5,800.06s14.28,21.74,26.91,23.74Zm579.67,9.08-23.56-6.83v29.58C721.84,808.78,721.86,808.77,727.08,783.52Zm-15.15,53.84L715.85,823H703.76C704.48,829.12,700.17,836.86,711.93,837.36Z"/><path class="cls-1" d="M416,186.46c3.72,0,7.74-.87,11.07.28,2.61.9,6.25,4.44,6.06,6.51-.26,2.85-3.39,7.35-5.81,7.72a74.39,74.39,0,0,1-21.29.09c-2.59-.36-6.79-5-6.41-7,.57-2.92,4.15-6,7.19-7.45,2.51-1.22,6.08-.25,9.18-.25Z"/><path class="cls-1" d="M322.73,562.39c-12,0-22.59.3-33.15-.18-3.35-.15-8.6-1.67-9.41-3.88-1.1-3,.13-8.1,2.25-10.84q48.81-63,98.37-125.41A18.24,18.24,0,0,1,393.27,416q86.28-.59,172.57,0a18.24,18.24,0,0,1,12.5,6q49.34,62,97.79,124.67c2.2,2.84,4.53,8.37,3.24,10.46-1.75,2.84-6.8,4.25-10.68,5-4.16.82-8.61.19-13.87.19-.2,4.06-.5,7.36-.5,10.66,0,30.64,0,61.28,0,91.91,0,11.32-1.88,13.21-12.93,13.21q-152.88,0-305.75,0c-11.12,0-12.84-1.79-12.85-13.24q-.06-45.49,0-91C322.73,570.55,322.73,567.14,322.73,562.39Zm83.51-130.64A44.51,44.51,0,0,0,409,436.6c27.53,35.22,55,70.5,82.84,105.46,2.23,2.79,7.26,4.7,11,4.73,48.47.31,96.94.22,145.41.18,2.28,0,4.57-.41,7.34-.68a25.67,25.67,0,0,0-1.71-3.23c-27.93-35.7-55.76-71.49-84.05-106.9-2.35-2.94-7.88-4.69-11.94-4.72-47.22-.32-94.44-.21-141.66-.19C413.22,431.26,410.21,431.54,406.23,431.75ZM638.19,563H456.06v99.54H638.19ZM389,492.39c-16.71,21.45-33.11,42.25-49.09,63.35-1.8,2.38-1.72,6.51-1.74,9.84-.14,22.19-.07,44.38-.07,66.58,0,9.92,0,19.84,0,30.17H439.6c0-34.36,0-68.08-.09-101.79a10.62,10.62,0,0,0-2.18-6C421.5,534,405.54,513.63,389,492.39Zm-86.26,53.84c14.43,1.71,25.58,2.23,34.19-11.4a291.07,291.07,0,0,1,34.45-44.23c12-12.73,10-26.7,9.14-43.7Zm172.48-.09L399,448.91c-2.39,15.37-4.27,29.16,7.59,41.65a272.65,272.65,0,0,1,33.88,43.59C449.14,548.13,460.44,548.21,475.21,546.14Z"/><path class="cls-1" d="M697.93,345.21c.06-1.25-.68-5.63.74-9.14,1.14-2.84,4.91-6.41,7.46-6.38s6.71,4.18,6.9,6.75a228.75,228.75,0,0,1,0,32.65c-.18,2.48-4.58,6.5-7,6.47-2.58,0-6.25-3.58-7.36-6.41-1.39-3.52-.66-7.88-.76-10-9,.4-17.47,1.36-25.87.78-2.47-.17-6.39-4.71-6.42-7.29s3.94-6.82,6.51-7.1C680.44,344.63,688.95,345.21,697.93,345.21Z"/><path class="cls-1" d="M226.37,345c4.62,0,9.2-.94,13.09.3,3.15,1,5.47,4.63,8.15,7.09-2.81,2.68-5.2,6.45-8.54,7.73-3.5,1.34-7.92.3-12.71.3-.36,3.28.12,6.4-1.14,8.49-1.68,2.79-4.69,6.62-7.13,6.62s-7.16-3.84-7.35-6.27a209.12,209.12,0,0,1-.06-32.63c.22-2.68,4.75-6.3,7.84-7,1.73-.37,5,4.17,6.75,7C226.41,338.63,226,341.47,226.37,345Z"/><path class="cls-1" d="M220.95,435a10.81,10.81,0,0,0-2.62-.65c-5.94,0-12.32-.27-11.89-8.19s7.23-7.1,12.86-7.1c7.5,0,15,.07,22.5,0,5.32-.07,10.75.31,11.14,7,.42,7.26-5,8.41-10.83,8.3a25.38,25.38,0,0,0-3.53.41c-3.06,6.67,2.9,18.87-8.83,18.92S224,441.37,220.95,435Z"/><path class="cls-1" d="M228.64,693.21c-5,0-10.18.81-14.9-.32-2.87-.69-7.31-4.81-7-6.63.56-3,4-6,7-8,3.51-2.35,7.89-3.34,11.63-5.39,4.16-2.28,26.47,6,27.44,10.74,1.16,5.68-1.59,9.16-7.32,9.52S234.25,693.22,228.64,693.21Z"/><path class="cls-1" d="M221.79,487.5c.83-6.32-2.11-15.27,7.56-15.49,10.41-.23,8.11,9,8,15.39s2.8,15.76-7.32,16C218.79,503.72,223.1,493.5,221.79,487.5Z"/><path class="cls-1" d="M237.43,639.57c-.62,4.66,2.41,14-8,13.87-9.66-.12-7-9-7.48-15.1-.21-2.77-.93-6.09.26-8.23,1.81-3.25,5.09-5.68,7.74-8.47,2.49,2.65,5.62,5,7.24,8.06C238.35,631.9,237.43,635.17,237.43,639.57Z"/><path class="cls-1" d="M430.39,360.51c-5.69-.48-15,2.06-14.85-8.07.12-9.36,9-7.13,15.22-7.51,1.85-.11,3.72,0,5.58,0,5.69,0,11.39,1,11.12,8-.27,6.85-6,7.72-11.67,7.55C434.24,360.47,432.69,360.51,430.39,360.51Z"/><path class="cls-1" d="M631.38,360.71c-6.66-.89-15.57,2.1-15.87-7.58-.33-10.6,9-8.09,15.31-8s15.77-2.91,16.11,7.22C647.32,363.64,637,359.25,631.38,360.71Z"/><path class="cls-1" d="M580.2,360.5c-1.24,0-2.48,0-3.72,0-5.77.15-11.36-1.1-11.28-7.94s5.94-7.71,11.56-7.65c4,0,8.43-.94,12,.38,3.37,1.26,5.85,4.93,8.72,7.53-3,2.55-5.62,5.7-9,7.43C586.25,361.4,583,360.48,580.2,360.5Z"/><path class="cls-1" d="M381.41,360.64c-6-1.07-15.51,2.68-15.64-7.8s9.34-7.73,15.56-7.76,15.76-2.68,15.89,7.51S387.91,359.84,381.41,360.64Z"/><path class="cls-1" d="M281,360.6c-6.29-.62-15.15,1.95-15.27-7.66-.13-10.47,9.23-7.84,15.53-7.89s16-2.44,16.08,7.41C297.49,363.18,287.43,359.73,281,360.6Z"/><path class="cls-1" d="M221.81,537.39c1-6-2.48-15.49,8.13-15.34,9.65.14,7.53,9,7.45,15.05-.08,6.62,2.67,16.56-7.94,16.48C219.52,553.51,222.64,543.86,221.81,537.39Z"/><path class="cls-1" d="M479.46,360.45c-5-.46-14.2,2.15-13.9-8.16.28-9.48,9.18-6.91,15.29-7.34,2.77-.2,6.12-.92,8.23.3,3.21,1.85,5.56,5.18,8.27,7.89-2.69,2.44-5.07,5.52-8.19,7.1C486.93,361.36,483.69,360.45,479.46,360.45Z"/><path class="cls-1" d="M237.67,587.47c-.9,6.43,2.36,15.92-7.91,16s-7.62-9.41-7.69-15.71-2.38-15.85,7.59-15.92S236.88,581.27,237.67,587.47Z"/><path class="cls-1" d="M331.63,360.62c-6.48-.73-16,2.2-16-7.85s9.37-7.83,15.76-7.71,15.73-2.76,15.8,7.59S337.74,359.73,331.63,360.62Z"/><path class="cls-1" d="M531.22,360.63c-6.08-1-15.59,2.52-15.56-8s9.52-7.49,15.75-7.61,15.79-2.37,15.77,7.68S537.68,359.85,531.22,360.63Z"/><path class="cls-1" d="M825,476a33.12,33.12,0,1,1,33.51-33.12A33.29,33.29,0,0,1,825,476Zm17.82-32.8A17.78,17.78,0,0,0,825.45,425c-9.49-.17-18,8.08-18.17,17.6a17.89,17.89,0,0,0,17.6,18A17.37,17.37,0,0,0,842.79,443.18Z"/></svg>