<svg id="Layer_1" data-name="Layer 1" xmlns="http://www.w3.org/2000/svg" viewBox="0 0 1080 1080"><defs><style>.cls-1{fill:#C9A44C;}</style></defs><title>Icons</title><path class="cls-1" d="M540.05,607c81.12,0,162.24-.19,243.36.07a124.27,124.27,0,0,1,41.65,241.11c-5.74,2.08-8.13,4.62-7.41,10.72a90.42,90.42,0,0,1,0,14.35A35.16,35.16,0,0,1,783.81,907c-2.39.1-4.79,0-7.18,0H303.47c-27.71,0-41.75-13.39-40.81-41,.38-11.19-2.79-16-13.45-20.43-54.59-22.58-85.39-80.7-74.12-137.38,11.75-59.11,62.21-101,122.4-101.2C378.34,606.88,459.2,607,540.05,607Zm0,19.17c-81.4,0-162.79-.28-244.19.09-56.83.26-103.33,47.33-103.73,104A105.23,105.23,0,0,0,297.46,836.8c83.79.24,167.58.07,251.37.06,78.47,0,156.94.28,235.41-.12,56.84-.29,103.3-47.32,103.74-104A105.21,105.21,0,0,0,782.64,626.24C701.78,626,620.91,626.19,540,626.2ZM281.81,855.61c-.11,2.17-.28,4.25-.3,6.34-.22,22.37,3.36,26,25.64,26H775.39a70.46,70.46,0,0,0,8.77-.16c7-.88,12.43-4.77,13.58-11.61s.25-13.91.25-20.55Z"/><path class="cls-1" d="M421.75,243.13V386.4H352V243.13h-9.37q-71.42,0-142.84,0c-18.4,0-26.73-8.39-26.78-26.79,0-6.92-.16-13.84.06-20.75.43-13.32,9.45-22.16,22.86-22.65,1.59-.06,3.19,0,4.79,0h679.1c14.52,0,22.36,4.58,26,15.23a20.78,20.78,0,0,1,1.27,6.2c.14,9,.38,18.1,0,27.13-.51,12.09-9.36,20.78-21.41,21.58-2.91.19-5.85.09-8.78.09H421.75ZM540,192.06H213c-20.91,0-20.91,0-20.9,20.76,0,11.15,0,11.16,11.37,11.16H876.67c1.86,0,4.11.65,5.5-.16,2.24-1.31,5.23-3.38,5.56-5.5.8-5.19.28-10.59.27-15.91,0-10.34,0-10.35-10.57-10.35Z"/><path class="cls-1" d="M421.93,438c11.27,0,21.63-.6,31.89.16,12,.89,22,11.31,22.19,23.42q.59,51.05,0,102.12a24.43,24.43,0,0,1-24.17,24q-65,.46-130,0a24.49,24.49,0,0,1-24.19-24q-.53-51.06,0-102.12c.15-12.49,10.5-22.65,22.94-23.55,7.67-.55,15.42-.17,23.13-.2h8c0,15.63,0,30.69,0,45.75,0,19.52,8.09,27.63,27.51,27.66,6.65,0,13.3.16,19.95-.06,13.32-.43,22.46-9.43,22.68-22.77C422.13,472,421.93,455.5,421.93,438Z"/><path class="cls-1" d="M658.16,437.92c0,16.3,0,31.67,0,47.05,0,17.81,8.55,26.23,26.47,26.3q8.78,0,17.55,0c17.75-.08,26.14-8.58,26.18-26.59,0-15.35,0-30.7,0-46.59,11.32,0,21.94-.72,32.43.19,12,1,21.57,11.68,21.68,23.88q.47,50.66,0,101.32a24.62,24.62,0,0,1-24.75,24.28q-64.62.37-129.25,0A24.67,24.67,0,0,1,604,563.15q-.44-50.26,0-100.53A24.72,24.72,0,0,1,627.6,438C637.39,437.52,647.22,437.92,658.16,437.92Z"/><path class="cls-1" d="M332.22,335.7v50.82H278.31c0,3.37,0,6.16,0,9,0,21.81.05,43.61,0,65.42-.05,16.35-10.51,27.85-25.26,28-15.07.15-25.74-11.5-25.78-28.28q-.08-35.9,0-71.8c.12-31.31,21.92-53,53.34-53.09C297.57,335.65,314.55,335.7,332.22,335.7Z"/><path class="cls-1" d="M495.37,386.8H441.6V336.13c20.39,0,40.66-1.49,60.61.37,25.81,2.41,43.93,24.26,44.17,50.33.24,25,.14,50,0,75-.07,15.62-10.88,27-25.36,27.08-14.78.08-25.6-11.45-25.65-27.6C495.31,436.85,495.37,412.41,495.37,386.8Z"/><path class="cls-1" d="M370.88,438H402.8v31.49c0,22.75,0,22.49-23,22.75-7,.08-9.27-2-9-9C371.22,468.45,370.88,453.61,370.88,438Z"/><path class="cls-1" d="M677.32,438h31.92v36.39c0,17.72,0,17.78-17.55,17.71-16.28-.07-14.26,1.92-14.36-14.5C677.26,464.64,677.32,451.68,677.32,438Z"/><path class="cls-1" d="M540.13,658.11c80.56,0,161.12-.15,241.68.06,42.68.11,75.38,33.92,74.18,76-1.06,37.32-31.81,68.73-69.14,70.62-2.39.12-4.78.14-7.18.14q-239.69,0-479.38,0c-37.68,0-68.27-24.3-74.74-59-8.58-46.06,25.15-87.46,72.1-87.69,65.67-.32,131.34-.09,197-.09ZM732.64,785.39c-15.2-15.61-23.38-33.22-23.35-54.11s8.48-38.28,23.19-53.62h-385c15.24,15.6,23.36,33.24,23.34,54.12s-8.5,38.27-23.21,53.61ZM351.69,731.91a54.24,54.24,0,0,0-108.48-.79c-.17,29.84,24.1,54.47,53.84,54.64A54.43,54.43,0,0,0,351.69,731.91Zm485.2-.3a54.24,54.24,0,1,0-54.33,54.15A54.39,54.39,0,0,0,836.89,731.61Z"/><path class="cls-1" d="M278.36,731.89A19.09,19.09,0,1,1,298,750.62,19.27,19.27,0,0,1,278.36,731.89Z"/><path class="cls-1" d="M801.75,731.82a19.1,19.1,0,1,1-19-19.39A19.3,19.3,0,0,1,801.75,731.82Z"/></svg>