<svg id="Layer_1" data-name="Layer 1" xmlns="http://www.w3.org/2000/svg" viewBox="0 0 1080 1080"><defs><style>.cls-1{fill:#C9A44C;}</style></defs><title>Icons</title><path class="cls-1" d="M341.78,591.79c11.89,0,22.57.22,33.23-.17,2.35-.09,4.88-2,6.91-3.6q109-86.45,218.07-172.84c3.61-2.85,9.24-4.42,13.94-4.43q131.08-.39,262.15-.2a74.61,74.61,0,0,0,8.89-.2,20.76,20.76,0,0,0,15.12-32.28c-2.84-4.33-6.29-6.54-12-6.27-21,1-42,1.48-63.07,1.93-8.85.19-14.69-5.07-14.78-12.58-.08-7,5.33-12.34,13.68-13.15,3.21-.31,6.46-.33,9.7-.35,9.11,0,18.22,0,29.28,0C848.13,332,832.14,323,813,320.07a131,131,0,0,0-23.35-1.45q-246.27,6.49-492.53,13.29c-25.56.71-45.45-9.13-59.79-30.31-8.92-13.17-18.28-26-26.77-39.48-3.53-5.58-7.56-7.48-13.8-7-5.61.46-11.28.1-17.83.1,2.87,8.22,5.45,15.81,8.17,23.34,6.67,18.49,12.65,37.27,20.26,55.36,20.19,48,57.65,72.44,108.76,76.28,18.24,1.37,36.66.25,55,.35,9.91.05,16.1,5.33,15.85,13.28-.25,7.69-6.2,12.82-15.74,12.52-26.36-.81-53.28,1.12-78.93-3.65-53-9.84-90.36-41.3-110.18-92-9.6-24.56-18.2-49.53-27-74.38-7.28-20.45,4.56-36.91,26.44-37,7.55,0,15.1,0,22.66,0,9.92-.06,17.67,3.91,23.29,12.14,10.33,15.14,20.87,30.14,31.06,45.37,9,13.5,21.41,19.71,37.64,19.26q137.89-3.79,275.79-7.32c1.77,0,3.53-.2,7-.4-3-2.61-4.69-4.21-6.51-5.55q-75.07-55.59-150.28-111c-3.37-2.47-8.19-3.78-12.44-4-9.3-.6-18.66-.19-29.56-.19l16.52,24.28q17.29,25.4,34.58,50.8c5.81,8.58,5.3,16-1.21,20.63-6.84,4.9-14.1,2.72-20.25-6.27-16.46-24-32.78-48.12-49.31-72.08-6.52-9.44-8.49-19.31-3-29.63s14.89-13.94,26.36-13.75c50.36.85,33.34-5.5,74.25,24.49,53,38.9,105.76,78.24,158.78,117.17A20.38,20.38,0,0,0,628.56,297Q703,295.35,777.36,293c20.62-.7,41.23-1,60.44,7.39A168.56,168.56,0,0,1,869,318.47c14.14,10.31,27.33,21.93,40.93,33,17.64,14.34,23.84,34.29,16.76,54-7,19.41-24.22,31-46.46,31-85.77,0-171.53-.07-257.3.23a25.15,25.15,0,0,0-14.43,5Q502.44,525.3,396.82,609.51c-7.09,5.64-14.67,8.59-23.79,8.27-9.7-.34-19.42-.21-29.12,0-11.24.2-20.13-4-25.39-14s-3.39-19.67,3-28.87Q377.36,494.48,433,414c6.23-9,13.46-11.31,20.24-6.66s7.37,12.22,1.14,21.23Q401,505.72,347.59,582.81C345.81,585.39,344.18,588.07,341.78,591.79Z"/><path class="cls-1" d="M489.47,902.54V873.16q0-79.7,0-159.4c0-14.45,3.84-18.36,18-18.37q51,0,102,0h9.48V686q0-64.33,0-128.65c0-13.15,4.19-17.27,17.5-17.28q73.23,0,146.45,0c13.14,0,17.28,4.2,17.28,17.51q0,63.92,0,127.84v10h8.9q51.78,0,103.57,0c12.68,0,17,4.3,17,17q0,99.52,0,199c0,12.68-4.32,17-17,17q-345.5,0-691,0a29.79,29.79,0,0,1-5.65-.18c-6.94-1.36-11.19-5.57-11.21-12.73S209,904,216,902.76c2.62-.48,5.38-.21,8.07-.21H489.47ZM618.93,721.46c0,12.81-.05,24.89,0,37,0,7-2.91,12-9.71,14.14-8.38,2.58-16-4-16.15-14-.18-12.29,0-24.58,0-36.62H515.83V902H696V721.46ZM722.9,902H903.39V721.77h-77.3c0,12.55.11,24.64,0,36.72-.1,8.21-4.42,13.52-11.29,14.44-8,1.08-14.39-5.05-14.52-14.43-.16-12.28,0-24.56,0-36.81H722.9Zm-.39-335.87c0,11.92.07,23.18,0,34.44,0,2.92,0,6.06-1,8.72-2.4,6.32-7.47,9.37-14.09,8.1-6.93-1.32-10.61-6.11-10.66-13.25-.09-12.56,0-25.13,0-37.55H645.26V694.87H773.69V566.1Z"/><path class="cls-1" d="M242.61,177.51c-16.15,0-32.3.07-48.44,0-9.53-.06-15.3-5-15.36-12.83s5.71-13,15.18-13q49.25-.12,98.5,0c9.38,0,15.38,5.16,15.44,12.83s-5.92,13-15.26,13C276,177.58,259.29,177.51,242.61,177.51Z"/><path class="cls-1" d="M216.84,617.71c-16.18,0-32.35.07-48.53,0-9.56-.05-15.34-5-15.4-12.83s5.71-13,15.21-13q49.34-.11,98.68,0c9.28,0,15.31,5.49,15.09,13.22-.21,7.43-6,12.54-14.9,12.6C250.27,617.79,233.56,617.71,216.84,617.71Z"/><path class="cls-1" d="M256.42,540c12.13,0,24.26-.09,36.39,0,8.89.09,14.72,5.1,15,12.53.26,7.7-5.8,13.26-15,13.3q-36.39.15-72.79,0c-9.52,0-15.3-5.08-15.28-12.95s5.79-12.81,15.33-12.89C232.16,540,244.29,540,256.42,540Z"/><path class="cls-1" d="M164.16,928.43c-8.19-.13-14.15-6-13.82-13.49.32-7.21,6.2-12.37,14.11-12.38,8.31,0,14.31,5.5,14.21,13.08S172.49,928.56,164.16,928.43Z"/></svg>