<svg id="Layer_1" data-name="Layer 1" xmlns="http://www.w3.org/2000/svg" viewBox="0 0 1080 1080"><defs><style>.cls-1{fill:#C9A44C;}</style></defs><title>Icons</title><path class="cls-1" d="M388.75,623.56h92.89c.16,3.27.43,6.3.43,9.34,0,30,0,59.9,0,89.85,0,15.24,4.39,19.61,19.49,19.63q39.31,0,78.62,0c13.34,0,18.14-4.81,18.18-18.33.09-33.11,0-66.21,0-100H691.9V926.76H388.75Zm260.5,269.52h0c0-4,.22-8,0-12-.51-7.71-5.92-13.33-13.08-13.3-7.56,0-13.1,4-13.88,11.46a119.94,119.94,0,0,0,.08,26.57c.88,7.33,6.43,11.62,14.06,11.12s12.07-4.95,12.77-12.62C649.53,900.56,649.25,896.81,649.25,893.08Zm5-.71c0,3.73-.21,7.47,0,11.18.53,7.76,5.83,13.1,13,13.44a13.42,13.42,0,0,0,14.2-12.21,162.86,162.86,0,0,0,0-24.92,13.44,13.44,0,0,0-14.24-12.18c-7.14.37-12.5,5.81-13,13.5C654.08,884.9,654.28,888.64,654.28,892.37Zm-64.51.18h.06c0,4-.35,8.05.07,12,.81,7.65,5.52,11.81,13,12.38,7.1.54,13.27-4.72,13.86-12.38a169,169,0,0,0,.08-24c-.52-7.8-6.39-12.91-13.5-12.91s-12.75,5.12-13.52,12.9C589.45,884.5,589.77,888.54,589.77,892.55Z"/><path class="cls-1" d="M649.4,387.57c0,60.2-49.13,109.4-109.21,109.37S431.07,447.68,431.1,387.47,480.28,278,540.3,278.07,649.4,327.34,649.4,387.57ZM540.28,410.21c11.74-1,23.56-1.53,35.22-3.18,16.07-2.27,31.42-7.09,45-16.38,15.47-10.58,21.2-29.64,14.1-46.5S610,317.87,591.54,322.38c-34.56,8.46-68.82,8.15-103.4-.14-23.33-5.59-44.82,12.23-45.09,36.18-.19,17.27,9,28.55,23.52,36.28C489.63,407,514.7,409.49,540.28,410.21Z"/><path class="cls-1" d="M816.82,433.5C801.12,409.37,780,397,751.49,402c-27.72,4.77-43.52,22.79-50.8,49.65H661.46c11.13-22.55,16.86-45.74,15.34-71.81H913.49c2,0,4.38-.62,6,.21,2.81,1.46,7.09,3.72,7.21,5.84.16,2.85-2.35,7.28-4.94,8.58-6.89,3.47-14.43,5.63-21.71,8.32Z"/><path class="cls-1" d="M419.24,451.92H380c-7.29-26.82-23.15-45.47-51.66-50.07-28.2-4.55-49,7.61-64.69,31.53-7.92-2.9-15.94-5.83-23.95-8.79-26.15-9.65-52.39-19.1-78.36-29.23-3.38-1.32-5.38-6.17-8-9.38,3.36-2.06,6.71-5.91,10.08-5.92,78.89-.32,157.78-.23,236.68-.19a21,21,0,0,1,3.4.73C402.3,405.26,407.55,428.79,419.24,451.92Z"/><path class="cls-1" d="M804.31,786.64c19.44-1.24,20.9-2.69,24.57-20q12.72-60.27,25.66-120.49a6.55,6.55,0,0,1,2.88-4.46C861,658,864.53,674.41,868,690.81q8.08,37.92,16,75.86c3.65,17.5,4.93,18.72,24.45,20l-52,54.93Z"/><path class="cls-1" d="M275.33,645c-3.57.23-5.16.37-6.76.44C258,645.87,254,649,251.88,659.08q-11.41,53.49-22.69,107c-1.78,8.39-3.62,16.77-6.8,25.22q-7-32.62-13.91-65.25c-4.29-20.22-8.46-40.47-12.82-60.68-3.95-18.3-4.23-18.47-24.33-20.84L223.1,590Z"/><path class="cls-1" d="M510.53,623.54h59.64v90.73H510.53Z"/><path class="cls-1" d="M318.61,497.1a34.13,34.13,0,0,1-34.26-33.78,34.55,34.55,0,0,1,34.2-34.93c18.36-.2,34.12,15.36,34.38,34A34.45,34.45,0,0,1,318.61,497.1Z"/><path class="cls-1" d="M796.14,463.18a34.28,34.28,0,0,1-68.56-.69c.14-18.55,15.87-34.25,34.2-34.1A34.72,34.72,0,0,1,796.14,463.18Z"/><path class="cls-1" d="M560.81,251.12H519.3c.71-9.8,1.34-19.71,2.17-29.6q2.25-26.61,4.71-53.21c.9-9.67,6.29-15.2,14.31-15.06,7.71.13,13,5.53,13.78,14.69q3.38,37.33,6.5,74.68C561,245.61,560.81,248.65,560.81,251.12Z"/><path class="cls-1" d="M666.67,333.57l-13.39-24.14c18.56-3.16,36.48-6.26,54.41-9.26,11.62-1.95,23.23-4,34.91-5.45,2.12-.26,4.56,2.06,6.85,3.2-1.23,2-2,5.13-3.77,5.8C719.49,313.83,693.19,323.62,666.67,333.57Z"/><path class="cls-1" d="M427.28,309.31,413.9,333.44l-64.57-24c-4.31-1.6-8.87-2.73-12.84-4.93-2.3-1.28-3.66-4.27-5.44-6.48,2.55-1.13,5.28-3.5,7.64-3.18,15.94,2.2,31.8,4.93,47.67,7.56C399.66,304.59,413,306.89,427.28,309.31Z"/><path class="cls-1" d="M539.42,383.5c-15.24-2.44-30.52-4.6-45.67-7.48-5-.94-9.67-3.54-14.28-5.82-6.11-3-10.86-7.53-8-15,2.76-7.12,8.68-6.82,15.19-5.22a221.37,221.37,0,0,0,107.42-.06c6.65-1.64,12.41-1.52,15,5.59s-1.77,11.32-7.58,14.47C582.17,380.48,561,381.67,539.42,383.5Z"/></svg>