<svg id="Layer_1" data-name="Layer 1" xmlns="http://www.w3.org/2000/svg" viewBox="0 0 1080 1080"><defs><style>.cls-1{fill:#C9A44C;}</style></defs><title>Icons</title><path class="cls-1" d="M117.42,540q0-190.45-.07-380.9c0-11.55,1.82-22.12,10.28-30.71,7.88-8,17.49-11,28.52-10.92,30.55.14,61.1,0,91.64,0,116.78,0,233.57.21,350.35-.21,19.83-.07,35.41,6.33,49.21,20.49Q696.3,188,746.54,237c12.66,12.42,18.3,26.79,18.29,44.35q-.2,319.8-.11,639.6c0,27.65-14.07,41.68-41.74,41.68q-282.09,0-564.19,0c-27.8,0-41.37-13.71-41.37-41.8Q117.38,730.43,117.42,540ZM604.54,137.23h-445c-17.48,0-22.43,5.06-22.44,22.89q0,379.91,0,759.83c0,18.19,4.89,23,23.29,23H721.71c18.2,0,22.92-4.78,22.92-23.28q0-315.48,0-631c0-3.37,0-6.74,0-10.83H732.92c-29,0-57.91.11-86.86-.1a59.75,59.75,0,0,1-16.92-2.17c-15.42-4.73-24.48-18.12-24.55-35.83C604.43,206.1,604.54,172.42,604.54,137.23Z"/><path class="cls-1" d="M962.65,540q0,192.77,0,385.54c0,27.09-10.2,37.18-37.5,37.19q-42,0-84,0c-26.39,0-37.06-10.62-37.06-36.92q0-345.94,0-691.88c0-27.36-.07-54.71,0-82.07.08-22.61,11.56-34.23,33.91-34.29q45.33-.13,90.66,0c22.64.06,33.92,11.29,33.93,34Q962.7,345.75,962.65,540Zm-20.12-35.55a24.22,24.22,0,0,0-2.94-.51q-22.43-.06-44.87-.07c-12.52,0-17.55-2.78-17-10.06.86-11.5,9.88-9.55,17.27-9.62,15.8-.15,31.59,0,47.26,0V457.85H918.77c-7,0-12.16-2.77-12-10.37.16-7.23,5.45-9.38,11.91-9.38h23.58V411.94H932.18c-14.64,0-29.28.11-43.91-.1-6.16-.09-10.49-3.14-10.58-9.8s4.19-9.57,10.38-9.94c3.49-.21,7-.09,10.5-.09h43.67V366c-8,0-15.27,0-22.56,0-6.72,0-12.56-1.9-12.87-9.58-.34-8.36,5.75-10.5,12.83-10.57,7.52-.08,15,0,22.49,0V320.05H896.52c-14,0-19.08-2.77-18.9-10.32.17-7.38,5-9.85,19.37-9.86H942.4V274.06c-7.75,0-15,0-22.24,0-6.95,0-13.39-1.65-13.35-10.05s6.24-10.13,13.33-10.07c7.47.06,14.93,0,22.21,0V228c-5,0-9.37,0-13.76,0-13.68-.05-27.42.52-41-.61-3.55-.3-8.66-5.46-9.53-9.21-1.44-6.23,3.55-9.61,9.79-10.12,2.53-.21,5.09-.07,7.63-.07h46.94V181.77c-8,0-15.61-.06-23.18,0-6.82.07-12.5-1.86-12.44-9.73.06-7.64,5.46-10,12.39-10,7.81.08,15.62,0,23.44,0,.14-3,.27-4.62.29-6.2.21-17.07-1.37-18.69-18.17-18.69H843.6c-18.77,0-19.39.61-19.39,19.29q0,383.28,0,766.56c0,2.55.06,5.09,0,7.64-.16,8,4.05,11.82,11.68,11.84q47.73.14,95.46,0c7.66,0,11.68-4.19,11.56-12-.06-4,0-8,0-12.84-8.74,0-16.32.07-23.89,0-6.8-.08-12.37-2.47-12.24-10.2s5.84-9.87,12.57-9.92c7.55-.06,15.1,0,22.91,0V871.69c-8.26,0-15.87,0-23.48,0-10.5,0-21.1.71-31.44-.61-3.59-.46-9-6.09-9-9.37s5.21-7.36,9-9.75c2.3-1.45,6.2-.38,9.38-.39q22.74,0,45.53,0V825.64c-8.33,0-16,.09-23.57,0-6.37-.1-11.73-2.34-11.86-9.57-.13-7.62,5.07-10.35,12-10.38,7.83,0,15.67,0,23.78,0V779.6H932c-14.64,0-29.28,0-43.91-.17-6.2-.09-10.5-3.09-10.39-9.85s4.32-9.51,10.56-9.78c3.18-.14,6.36,0,9.55,0h44.48V733.42H924.66c-13.51,0-18.7-2.69-17.89-10,1.22-11.06,10-9.52,17.52-9.57,6,0,11.91,0,18.14,0V688c-3.25-.18-6-.46-8.81-.47-15.27-.06-30.55,0-45.82-.1-6.47,0-11.18-3.71-9.7-9.94.88-3.7,5.72-7.41,9.66-9.15,3.46-1.53,8.13-.34,12.27-.34h42.22V641.53c-8.27,0-15.87-.07-23.46,0-7,.08-12.22-2.52-12-10.22.23-7.14,5.36-9.43,11.91-9.37,7.84.07,15.68,0,23.62,0V595.62H932.4c-14,0-28-.08-42,0-6.78,0-12.43-1.58-12.65-9.52s5-10.22,12-10.09c2.86.05,5.73,0,8.59,0h44.09V549.71c-8,0-15.56-.09-23.12,0-6.9.1-12.38-2.12-12.52-9.78-.14-7.82,5.4-10,12.29-9.88,7.79.08,15.58,0,23.43,0Z"/><path class="cls-1" d="M304.83,497.61c-3.86,0-7.3.8-10.13-.18-4.4-1.54-10-3.28-12.16-6.76-3.33-5.45,1.07-9.88,5.82-13.3q44.9-32.31,89.68-64.79c31.44-22.72,63-45.21,94.21-68.29,8-5.91,14.07-6,22.09-.17q90.58,66,181.55,131.43c5.14,3.72,11.46,7.28,8.78,15.1-2.63,7.66-9.74,6.91-16.13,7-2.19,0-4.38.32-7.17.54V704.88c19.44,5,23.95,10.86,24,30.93,0,3.82.12,7.64-.12,11.45-.78,12.43-9.55,21.15-22,22-2.53.17-5.09.11-7.63.11q-172.24,0-344.48.1c-11.53,0-22.81-1.35-27-13.26-4.9-13.91-6.55-29,3-41.87,3.58-4.81,10.76-6.93,17.75-11.16Zm335.7,207.78v-207H326.24V705.33h29c0-3.85,0-7.24,0-10.63,0-37.55-.06-75.09,0-112.64,0-19.18,8.86-28,28.06-28.09q35.8-.17,71.59,0c20,.07,28.28,8.43,28.31,28.53.06,37.55,0,75.09,0,112.64,0,3.36.3,6.73.47,10.25ZM483.42,360.82,322.9,476.89h321ZM375.32,705.07h88.27c0-41.79-.1-82.79.1-123.79,0-6.35-3-7.25-8.24-7.22-23.53.15-47.06.35-70.58-.11-7.56-.15-9.8,2.1-9.72,9.66.36,34.33.16,68.67.16,103C375.32,692.61,375.32,698.6,375.32,705.07Z"/><path class="cls-1" d="M241.78,420.48v267c3.24-2.8,5.26-5.9,7.82-6.44,4.15-.88,10.24-1.74,12.58.48s3.16,9.89,1.17,12.3A230,230,0,0,1,238,719.61c-4.73,4.17-10.61,3.43-15.4-1.43q-10.37-10.53-20.91-20.91c-4.85-4.75-7.6-10.1-2.25-15.75s10.85-3.73,15.78,1.23c1.34,1.35,2.79,2.58,5.17,4.78V421.12c-2.23,1.91-4.23,3.5-6.09,5.25-4.6,4.33-9.74,5.26-14.42.85-5.2-4.9-3.92-10.27.77-15,7.38-7.46,14.85-14.83,22.2-22.32,5.92-6,11.59-5.53,17.31.26q10.39,10.52,20.89,20.93c4.9,4.86,7.05,10.44,1.69,15.81s-11,3.14-15.81-1.75C245.8,424,244.59,423,241.78,420.48Z"/><path class="cls-1" d="M603.81,859.25H363.11c2.77,3.15,6,5.17,6.46,7.71.84,4.42,1.56,10.28-.67,13.38-1.54,2.14-9.69,2.52-12.18.44-9.47-7.93-18-17-26.54-26-4.22-4.47-3.08-9.22,1.21-13.43q11.23-11,22.26-22.27c4.89-5,10.42-6.93,15.8-1.6,5,5,3.28,10.38-1.23,15.12-1.45,1.52-2.75,3.2-4.92,5.75H603.53c-3-3.36-6.3-5.42-6.84-8-.85-4.12-1.47-10.27.82-12.53s9.9-2.88,12.35-.83a274.4,274.4,0,0,1,26.48,26c4.41,4.83,2.33,10.08-2,14.38-7.2,7.19-14.43,14.36-21.62,21.56-4.89,4.91-10.35,7-15.73,1.37-4.91-5.13-3.22-10.43,1.43-15.1C599.92,863.7,601.27,862.07,603.81,859.25Z"/><path class="cls-1" d="M357.76,285.92q-72,0-144.06,0c-3.46,0-7.64.56-10.19-1.11-3-2-6.42-6.16-6.29-9.25s3.94-6.74,7.05-8.69c2.37-1.47,6.17-.82,9.33-.82q144.54,0,289.08,0c2.86,0,6.38-.81,8.42.53,3.31,2.18,8,6,7.8,8.81-.28,3.6-4.38,7.47-7.73,10-1.84,1.42-5.53.52-8.39.52Q430.27,285.94,357.76,285.92Z"/><path class="cls-1" d="M308,216.35q-47.2,0-94.39,0c-2.85,0-6.36.78-8.41-.56-3.32-2.19-7.79-5.77-7.88-8.87s4-7.2,7.14-9.66c1.85-1.43,5.51-.65,8.36-.65q95.35,0,190.69,0c2.22,0,5.2-.82,6.52.29,3.52,2.95,8.21,6.48,8.74,10.29.35,2.55-5.26,6.56-8.9,8.79-2.1,1.29-5.58.39-8.44.39Z"/><path class="cls-1" d="M216.54,863.89c7.41,0,13.7,0,20,0s10.88,2.8,11.06,9.3c.19,6.9-4.33,10.28-11,10.38-9.54.13-19.09.15-28.63,0-7.31-.12-11.16-4.17-11.28-11.38-.17-9.54-.15-19.09,0-28.63.1-6.22,3.23-10.71,9.61-10.91,7-.22,10.07,4.61,10.26,11.18C216.68,850.12,216.54,856.42,216.54,863.89Z"/><path class="cls-1" d="M281.25,848.83c0-8-.2-15.91.07-23.85.21-6.17,3.25-10.45,10-10.37s9.72,4.42,9.79,10.57q.29,23.85,0,47.71c-.09,6.23-3.62,10.52-10,10.5s-9.61-4.48-9.77-10.69C281.09,864.74,281.25,856.79,281.25,848.83Z"/><path class="cls-1" d="M230.85,358.54c-7.63,0-15.27.1-22.9,0-6.22-.1-10.76-3.12-11.06-9.47-.33-7,4.42-10.31,11-10.38q23.37-.26,46.75,0c6.55.08,11.25,3.12,11,10.35-.26,6.61-4.76,9.36-10.92,9.48C246.75,358.65,238.8,358.54,230.85,358.54Z"/><path class="cls-1" d="M231.45,749.82c7.95,0,15.89-.05,23.84,0,6.44.06,10.41,3.28,10.33,9.83s-4.24,9.62-10.59,9.64c-15.89.06-31.78.08-47.67,0-6.42,0-10.52-3.61-10.45-9.88s4.28-9.59,10.71-9.6Q219.53,749.79,231.45,749.82Z"/><path class="cls-1" d="M685.31,848.86c0,7.95,0,15.89,0,23.84,0,6.42-3.37,10.6-9.68,10.64s-9.74-4.08-9.76-10.52q-.07-23.84,0-47.67c0-6.38,3-10.46,9.65-10.5s9.71,4,9.78,10.38C685.37,833,685.31,840.91,685.31,848.86Z"/><path class="cls-1" d="M516.75,601.89c0-8.27-.25-16.54.06-24.79.49-12.8,8.39-22,21.19-22.67,17.12-.87,34.34-.86,51.46-.1,13.25.59,21.41,9.7,21.75,23.16.41,16.2.46,32.43-.05,48.63-.45,14.28-9.52,22.64-24,22.83-15.57.21-31.16.23-46.73,0-14.13-.22-23.17-9.14-23.68-23.2C516.5,617.8,516.74,609.84,516.75,601.89Z"/><path class="cls-1" d="M514.4,430.35a31.53,31.53,0,0,1-31,30.94c-17.1.06-31.46-14.59-31.1-31.74.35-16.77,14.74-30.73,31.41-30.48S514.5,413.64,514.4,430.35Z"/></svg>