<svg id="Layer_1" data-name="Layer 1" xmlns="http://www.w3.org/2000/svg" viewBox="0 0 1080 1080"><defs><style>.cls-1{fill:#C9A44C;}</style></defs><title>Icons</title><path class="cls-1" d="M539.65,938.63q-164.07,0-328.14,0c-36,0-63.61-21.89-70.54-55.65-1.19-5.82-1.29-11.95-1.29-17.93q-.1-226.35,0-452.69c0-44.5,29.17-73.32,73.91-73.36,38.94,0,77.88.1,116.82-.18a19.72,19.72,0,0,0,11.53-3.9C387.8,297.37,433.4,259.52,479.24,222c4.78-3.91,5.89-7.31,4.9-13.65-3.69-23.92,4.38-43.79,24.82-57.07s42-13.24,62.17.29,28.51,33.12,24.24,57.22c-1,5.92.22,9.18,4.77,12.9,45.65,37.33,91,75,136.73,112.26a23.64,23.64,0,0,0,13.72,4.8c38.65.38,77.31.18,116,.22,44.32.05,73.76,29.4,73.78,73.77q.09,225.92,0,451.84c0,45-29.15,74-74.27,74Q702.86,938.69,539.65,938.63Zm.12-27.49q163.64,0,327.29,0c28.37,0,45.78-17.1,45.8-45.2q.09-227.21,0-454.42c0-27.58-17.63-45-45.2-45q-327.72,0-655.43,0c-27.83,0-45.07,17.09-45.08,44.89q-.08,227.64,0,455.28a54,54,0,0,0,1.38,13.59c5.1,19.4,21.2,30.9,43.08,30.91Q375.7,911.18,539.77,911.13ZM381,338.39H698.81L579.58,240c-29.12,20.35-45,20.37-79.84.33ZM540.18,227.72a29.3,29.3,0,0,0,29.05-28.82c.22-15.92-13.39-29.73-29.25-29.67a29.27,29.27,0,0,0-29.26,29.45C510.75,215.09,523.62,227.77,540.18,227.72Z"/><path class="cls-1" d="M540.34,384.78q141.32,0,282.65,0c31.44,0,55.1,17.84,61.78,46.57,1.41,6.06,1.63,12.49,1.64,18.75q.13,188.58,0,377.15c0,40.95-24.83,65.91-65.76,65.93q-280.93.11-561.86,0c-40.85,0-65.61-25.14-65.61-66.08q0-189.86,0-379.73c0-30.89,18.48-54.82,47.4-61.18,6.34-1.4,13.08-1.38,19.63-1.39Q400.31,384.71,540.34,384.78Zm-.75,27.49q-140.46,0-280.91,0c-25.62,0-38,12.33-38,37.81q0,188.56,0,377.13c0,25.78,12.61,38.53,38.42,38.53q280.48.05,561,0c26.44,0,38.87-12.5,38.88-39q0-188.13,0-376.27c0-26.1-12.24-38.23-38.43-38.23Q680.05,412.25,539.6,412.27Z"/><path class="cls-1" d="M388.26,473.43C411.1,465,433.41,457,455.47,448.32c7.25-2.84,13.43-2.64,20.46.63Q651.6,530.85,827.42,612.43c15.18,7.06,17,12.19,9.91,27.49q-43.89,94.51-87.8,189c-7.14,15.37-12.14,17.2-27.43,10.1q-175-81.31-350-162.49c-8.24-3.81-13.09-8.94-15.68-17.67-7.64-25.75-16.17-51.24-23.84-77-1.84-6.17-4.66-8.4-11-9-36.05-3.57-64.14-31.83-66.53-66.3-2.55-36.79,20.11-68.29,55.68-77.38,28.63-7.32,59.38,7.26,73.24,34.77C385.28,466.72,386.5,469.6,388.26,473.43Zm-46.2,46.63c1,3.83,1.76,7.13,2.77,10.34,11.77,37.34,23.76,74.61,35.22,112,1.94,6.35,5.08,9.91,11,12.67q142.85,66,285.52,132.47l50.8,23.6,81.93-176.33c-2.6-1.45-4.26-2.52-6-3.34q-166.42-77.4-332.94-154.58c-3.36-1.55-8.39-1.49-12-.24-20,7-39.63,14.78-59.55,21.88-5.66,2-8.12,5.1-10.08,11a120.92,120.92,0,0,1-13.24,26.57c-4.41,6.86-12.9,7.72-18.88,3.55s-7.46-11.85-3.33-19c.87-1.51,1.77-3,3.67-6.18Zm19.76-36.79c-6.24-19.1-22.54-30.35-39.84-28.28-20.37,2.44-37.42,19.37-39.5,39.22-2.32,22.13,10,42.08,30.45,49.09,2.22.76,4.6,1.08,7.83,1.82-2.57-8.13-4.73-14.91-6.86-21.7-5.32-16.94-3.41-20.88,13-27C338.37,492.13,349.8,487.8,361.82,483.28Z"/><path class="cls-1" d="M275.62,802.24c5-15.19-2.36-28.36-13.8-40.33a107.14,107.14,0,0,1-9.48-12.19c-7-9.9-4.18-19.09,7.29-22.82,10.86-3.53,22-6.33,32.78-10a18.8,18.8,0,0,0,8.6-6.16c6.65-8.94,12.56-18.43,19-27.5,7.55-10.57,18.83-11.12,24.77.37,12.72,24.6,31.74,38.55,59.11,43.12,13.32,2.23,16,12.92,7.94,24a8.82,8.82,0,0,1-1,1.37c-19.63,18.09-25.21,40.35-21.84,66.41,1.93,15-7.93,22.18-21.46,15.43-24.08-12-46.71-11.54-70.65.26-13,6.42-21.36-.56-21.3-15.31C275.64,814,275.62,809.16,275.62,802.24Zm85.93.56C357,780.69,363,763,381.83,747c-24.54-2.11-40.11-12.54-49.34-33.44-9.2,21-25.08,31.38-47.11,34.46,17.65,15,21.9,33.29,16.62,56.93C323,792.13,341.78,791.82,361.55,802.8Z"/><path class="cls-1" d="M728.53,521c4.52-12.13-3-21.07-10.8-29.57-15.5-16.93-10.3-29.09,10.87-32.45,13.12-2.08,22.36-8.74,28.21-20.6a45.2,45.2,0,0,1,6.38-9.11c6.09-7.12,15.28-7,21.51,0,16.13,18.15,23.22,23.32,45.2,32.94,8.85,3.87,12.82,13.31,6.39,20.16-14.46,15.43-20.2,32.53-17.5,53.55A11.88,11.88,0,0,1,801.85,548c-19.19-9-37.08-8.7-56.24.07-8.67,4-16.23-2.73-17-12.51C728.23,531.06,728.53,526.47,728.53,521Zm27.28-4.69c12.71-7,23.68-6.8,35.85-.21-2.51-13.76,1.07-24.36,11.66-34.57-15.15-.37-23.22-8.25-30.17-21.28-4.57,15-15,19.61-28.26,22.17C755.19,491.91,758.8,502,755.81,516.31Z"/><path class="cls-1" d="M660.31,661.3C663.9,653.6,667.6,646,671,638.2c3.16-7.1,6.71-13.65,16-12.82,9.15.81,12.28,7.23,13.14,16.27,7.62-7.36,15.18-6.83,23.1-2.23,3.2,1.86,6.56,3.78,10.1,4.66,36,8.94,42.66,63,17.84,89.25-12,12.67-26.48,21.05-43.94,19.53-9.78-.85-19.19-6.48-28.67-10.19-8.49-3.32-16.83-7-16.09-16.26-6.61,0-14,2.13-18.31-.6s-6.48-10.1-7.54-15.83c-2.18-11.79-3-23.83-4.37-35.76-.2-1.69-.6-3.35-1.34-7.38-5,10.57-9.24,19.24-13.17,28.05-3,6.76-7.06,12.19-15.28,11.24-7.78-.91-12.13-5.87-12.83-13.82-15.58,7.45-24.33,1.87-23.77-14.75.13-4,.26-8,.48-12,.79-14.41-.68-16.76-14.64-20.48-2.12-.57-5.43.75-7.28,2.29-5.06,4.19-9.61,9-14.41,13.5-11.26,10.58-21.46,8.05-26.48-6.52-15.31,3.74-21.33-.64-22.13-16.08q-.68-13.29-1.41-26.57a15.6,15.6,0,0,0-.81-2.14c-3.3,6.86-6.15,12.85-9.06,18.81-4.48,9.17-11.57,12.59-19.15,9.28s-9.81-11.19-5.86-20.38c1.23-2.85,2.49-5.68,4.67-10.66-3.61,3.12-5.42,4.94-7.48,6.41-11,7.86-22.58,10.68-35.37,4.32-6.4-3.18-13.05-5.85-19.4-9.11-8.31-4.27-10.79-10.8-6.91-19.31Q398,551,415.76,513.44c4-8.34,10.78-10.69,19.33-7.07,7.89,3.34,15.72,6.91,23.28,10.92,9.35,5,13.51,13.67,15,23.7.57,3.84.09,7.84.09,14.38,2.87-5.67,4.53-9.15,6.36-12.53,4.23-7.79,10.54-10.34,18.64-6.95,8.43,3.53,16.81,7.28,24.88,11.55,10.49,5.55,16.21,22,12.76,35.58-3.24,12.72-10.72,22.18-23.07,26.88-4.41,1.68-5.61,3.82-5.26,8.13.63,7.57.87,15.17,1.35,24.33,3.59-3.13,6-5,8.17-7.14q27.43-26,54.78-52.06c5.26-5,10.73-9,18.28-5.34,7.76,3.74,8.41,10.6,7.9,18.24-1.81,27.11-3.35,54.24-3.48,81.94,1.25-2.28,2.63-4.49,3.73-6.84,8.94-19.17,17.9-38.33,26.68-57.57,3.35-7.35,7.75-13.16,16.8-11.36,8.9,1.77,11,8.77,11.78,16.76,1.39,14.06,3.18,28.07,4.8,42.1Zm34.74,57.9c10.22,8.16,20,8.22,29.7,1.12,11.53-8.42,15.63-19.84,13.24-33.8-1.83-10.71-8.7-15.87-19.36-18ZM428,552c6.29.42,10.82,1.36,15.08.64,1.45-.24,3.78-5.63,2.95-7-2.23-3.65-5.94-6.4-10.14-10.58ZM410.11,590.5c6.11.48,10.65,1.62,14.79.79,1.66-.33,4.18-6.09,3.3-7.46-2.29-3.58-6.23-6.11-10.3-9.75ZM492.27,581c5.18.84,9.59,2.85,12.77,1.64,2.3-.88,4.83-6.76,3.92-9.1-1.22-3.11-5.69-5-9.49-7.92Zm-24.83-12.11c-9.17,5.71-14.66,11.1-9.8,21.47Z"/></svg>