<svg id="Layer_1" data-name="Layer 1" xmlns="http://www.w3.org/2000/svg" viewBox="0 0 1080 1080"><defs><style>.cls-1{fill:#C9A44C;}</style></defs><title>Icons</title><path class="cls-1" d="M801.83,149.74c-.25,3.52-.72,7-.72,10.55q-.05,287.66,0,575.33c0,3.52,0,7,0,11.69h-9.3c-141.48,0-283,.26-424.45-.21-31.32-.1-61.38,2.4-89.14,23.35V760q0-265.95,0-531.89c0-42.37,19.42-67.21,60.5-77.57a4.5,4.5,0,0,0,1.24-.84ZM711.11,418.43H598.35V250.88c-2.3-.23-3.77-.51-5.24-.51-42.92,0-85.84-.11-128.76.17-3,0-6.67,2.06-8.92,4.29-27.28,27-54.27,54.2-81.55,81.16A17.87,17.87,0,0,0,368,349.92q.25,143.62.12,287.25v9.33c3.06.19,5.28.46,7.5.46q121.53,0,243.06-.15a15.67,15.67,0,0,0,9.85-4q39.24-37.78,77.86-76.2a17.49,17.49,0,0,0,4.51-11.19c.31-42.67.2-85.33.2-128C711.11,424.65,711.11,421.93,711.11,418.43Z"/><path class="cls-1" d="M800.62,793v45.8H348.83v45.36H617.69v46h-7.21q-131.06,0-262.12,0c-34,0-61-21.5-68.49-53.87-9.41-40.59,21.6-81.38,63.25-83.17,2.79-.12,5.59-.11,8.38-.11H800.62Z"/><path class="cls-1" d="M709.12,929.88H664.27V885.06h44.84Z"/><path class="cls-1" d="M800.58,929.88H755.74V885.06h44.84Z"/><path class="cls-1" d="M552.28,463.93H664.74c.25,2.65.63,4.82.63,7,0,22.1.12,44.19-.09,66.29,0,2.78-.8,6.35-2.61,8.19-13.21,13.36-26.77,26.38-40.24,39.48-.46.44-1.22.57-2.89,1.32V509.82H505.37V342.41h-73c5.21-5.24,8.84-8.91,12.49-12.56,10.05-10.06,20-20.2,30.25-30.09,1.82-1.76,4.64-3.49,7-3.52,23.09-.26,46.19-.16,70.17-.16Z"/><path class="cls-1" d="M459.4,555.38H573.27v45.4H414.41V388.18h45Z"/></svg>