<svg id="Layer_1" data-name="Layer 1" xmlns="http://www.w3.org/2000/svg" viewBox="0 0 1080 1080"><defs><style>.cls-1{fill:#C9A44C;}</style></defs><title>Icons</title><path class="cls-1" d="M67,656.31c1.57-3.57,3-7.19,4.73-10.71,8.26-17.15,21.93-27.86,40.73-29.31,18.3-1.41,36.8-.31,56.52-.31,0,3.67,0,6.92,0,10.17,0,28.63-.08,57.26,0,85.89.15,42.05,28,69.82,70.22,69.95,30.76.09,61.51,0,92.12,0,7.73,29.27-15.72,60.28-46.74,61.06-32.61.82-65.26.28-97.89.31-21.55,0-43.1.05-64.65,0-28.12-.08-44.76-12.23-53.53-38.89A9.57,9.57,0,0,0,67,802.28Q67,729.3,67,656.31Z"/><path class="cls-1" d="M1013,802.28c-2.64,5.8-4.64,12-8,17.33-10.24,16-25.12,23.81-44.18,23.79-53.54,0-107.08.14-160.62-.07-34.06-.14-56.2-25.8-52.25-61.31h9.64c28.31,0,56.62.12,84.92,0,40.25-.21,68.48-28.4,68.7-68.62.16-28.92,0-57.85,0-86.77,0-3.3,0-6.6,0-10.22,20.2,0,39.64-1.56,58.71.43,20.29,2.11,33.64,15.25,40.63,34.49.83,2.28,1.63,4.58,2.45,6.87Z"/><path class="cls-1" d="M539.88,236.47c14.05.25,24.11,6.72,30.13,19.24,7.05,14.67,14.15,29.33,20.68,44.24,2.53,5.79,6,8.34,12.26,8.94,15.6,1.49,31.14,3.66,46.7,5.52,14.12,1.68,24.16,8.83,28.85,22.38,4.86,14,.79,26-9.8,35.94-11.44,10.74-22.71,21.68-34.54,32-5.16,4.49-6.12,8.85-4.67,15.27,3.45,15.28,6.06,30.74,9.17,46.1,2.77,13.7-1.17,25.13-12.06,33.61-11.26,8.76-23.78,9.59-36.35,2.89-14.91-8-29.43-16.65-44.46-24.36a14.42,14.42,0,0,0-11.42,0c-14.24,7.23-28.12,15.17-42,23-13,7.33-25.89,8-38.08-1-11.72-8.71-15.62-20.64-12.55-35.09,3.19-15,5.54-30.23,8.85-45.22,1.41-6.39.49-10.8-4.68-15.29-11.84-10.28-23.09-21.25-34.55-32-10.65-9.94-14.71-21.89-9.83-35.9s15.2-20.93,29.76-22.47c15.59-1.65,31.11-4,46.71-5.5,6.07-.58,9.09-3.34,11.44-8.69,6.56-14.89,13.53-29.62,20.56-44.3C515.94,243.32,526,236.81,539.88,236.47Z"/><path class="cls-1" d="M343.63,502.84c-6.15-3-16.62-7.33-26.17-13.15-6.85-4.18-12-4.87-18.89-.15a105.63,105.63,0,0,1-22.91,11.64c-17.91,6.62-35.55-8.25-32.69-27.22,1.14-7.58,2.7-15.13,4.54-22.57,1.63-6.58.73-11.47-5.11-16a111.2,111.2,0,0,1-17.83-17.29c-13-15.92-6.43-35.78,13.52-40.82a105.23,105.23,0,0,1,23.65-3.43c7.7-.14,11.48-3.31,14.11-10.21a120.47,120.47,0,0,1,10.52-21.45c11.05-17.49,31.82-17.68,43-.34a122.22,122.22,0,0,1,11,22.24c2.55,6.59,6.11,9.55,13.46,9.76a110.26,110.26,0,0,1,24.55,3.63c19.4,5.09,25.86,24.81,13.2,40.34a112.41,112.41,0,0,1-17.74,17.38c-6.08,4.76-6.93,9.76-5.09,16.73a143.57,143.57,0,0,1,4,22.65C374.35,490.5,363.2,503.19,343.63,502.84Z"/><path class="cls-1" d="M807.88,502.91c-6.15-3-16.7-7.21-26.18-13.13-7.24-4.52-12.65-4.69-19.74.07a105.57,105.57,0,0,1-23,11.55C721.88,507.53,704.4,492.88,707,475c1.55-10.64,7.26-22.19,4.62-31.49-2.49-8.76-13.74-14.88-20.65-22.58-16.48-18.36-10-38.85,14-44.22,7.77-1.74,15.95-1.64,23.69-3.46a16.23,16.23,0,0,0,9.34-6.66c4.56-7.61,7.38-16.28,12-23.84,11.13-18.15,32.08-18.38,43.53-.48a134.22,134.22,0,0,1,11,22.28c2.49,6.19,5.94,9,12.87,9.28a117.9,117.9,0,0,1,25.49,3.79c18.9,5.1,25.26,24.77,12.82,39.94-6,7.32-13.84,13.12-20.19,20.2a14.59,14.59,0,0,0-3.34,10.11c.94,8.84,3.54,17.49,4.58,26.33C838.59,490,827.46,503,807.88,502.91Z"/><path class="cls-1" d="M266.05,635.89a38.2,38.2,0,0,1,0,34.49,30.6,30.6,0,0,1-11.33,11.83,31.63,31.63,0,0,1-16.55,4.29H223.78V619.93h14.39a32.08,32.08,0,0,1,16.55,4.24A30.34,30.34,0,0,1,266.05,635.89Z"/><path class="cls-1" d="M509.77,635.89a30.33,30.33,0,0,0-11.33-11.73,32.08,32.08,0,0,0-16.56-4.24H467.5v66.56h14.39a31.64,31.64,0,0,0,16.56-4.29,30.6,30.6,0,0,0,11.33-11.83,38.2,38.2,0,0,0,0-34.49Zm0,0a30.33,30.33,0,0,0-11.33-11.73,32.08,32.08,0,0,0-16.56-4.24H467.5v66.56h14.39a31.64,31.64,0,0,0,16.56-4.29,30.6,30.6,0,0,0,11.33-11.83,38.2,38.2,0,0,0,0-34.49ZM406,628.35,389.75,668H421.9Zm0,0L389.75,668H421.9Zm103.81,7.54a30.33,30.33,0,0,0-11.33-11.73,32.08,32.08,0,0,0-16.56-4.24H467.5v66.56h14.39a31.64,31.64,0,0,0,16.56-4.29,30.6,30.6,0,0,0,11.33-11.83,38.2,38.2,0,0,0,0-34.49Zm0,0a30.33,30.33,0,0,0-11.33-11.73,32.08,32.08,0,0,0-16.56-4.24H467.5v66.56h14.39a31.64,31.64,0,0,0,16.56-4.29,30.6,30.6,0,0,0,11.33-11.83,38.2,38.2,0,0,0,0-34.49ZM406,628.35,389.75,668H421.9Zm0,0L389.75,668H421.9Zm103.81,7.54a30.33,30.33,0,0,0-11.33-11.73,32.08,32.08,0,0,0-16.56-4.24H467.5v66.56h14.39a31.64,31.64,0,0,0,16.56-4.29,30.6,30.6,0,0,0,11.33-11.83,38.2,38.2,0,0,0,0-34.49Zm0,0a30.33,30.33,0,0,0-11.33-11.73,32.08,32.08,0,0,0-16.56-4.24H467.5v66.56h14.39a31.64,31.64,0,0,0,16.56-4.29,30.6,30.6,0,0,0,11.33-11.83,38.2,38.2,0,0,0,0-34.49ZM406,628.35,389.75,668H421.9Zm0,0L389.75,668H421.9Zm103.81,7.54a30.33,30.33,0,0,0-11.33-11.73,32.08,32.08,0,0,0-16.56-4.24H467.5v66.56h14.39a31.64,31.64,0,0,0,16.56-4.29,30.6,30.6,0,0,0,11.33-11.83,38.2,38.2,0,0,0,0-34.49Zm269.09,3.77A32.12,32.12,0,0,0,772,628.8a31.61,31.61,0,0,0-10.52-7.19,35.95,35.95,0,0,0-26.66,0,31.16,31.16,0,0,0-10.47,7.19,33.3,33.3,0,0,0-6.87,10.86,38.58,38.58,0,0,0,0,27,33,33,0,0,0,6.87,10.86,31.64,31.64,0,0,0,10.47,7.24,35,35,0,0,0,26.66,0,32,32,0,0,0,17.39-18.11,39.33,39.33,0,0,0,0-27Zm72.75-11.26a15.83,15.83,0,0,0-6.13-5.89,18.51,18.51,0,0,0-9-2.14H822.17V652.5h14.26a19.93,19.93,0,0,0,9-1.95,15.35,15.35,0,0,0,6.13-5.47,14.63,14.63,0,0,0,2.22-8A17,17,0,0,0,851.61,628.4Zm0,0a15.83,15.83,0,0,0-6.13-5.89,18.51,18.51,0,0,0-9-2.14H822.17V652.5h14.26a19.93,19.93,0,0,0,9-1.95,15.35,15.35,0,0,0,6.13-5.47,14.63,14.63,0,0,0,2.22-8A17,17,0,0,0,851.61,628.4Zm-72.75,11.26A32.12,32.12,0,0,0,772,628.8a31.61,31.61,0,0,0-10.52-7.19,35.95,35.95,0,0,0-26.66,0,31.16,31.16,0,0,0-10.47,7.19,33.3,33.3,0,0,0-6.87,10.86,38.58,38.58,0,0,0,0,27,33,33,0,0,0,6.87,10.86,31.64,31.64,0,0,0,10.47,7.24,35,35,0,0,0,26.66,0,32,32,0,0,0,17.39-18.11,39.33,39.33,0,0,0,0-27Zm-269.09-3.77a30.33,30.33,0,0,0-11.33-11.73,32.08,32.08,0,0,0-16.56-4.24H467.5v66.56h14.39a31.64,31.64,0,0,0,16.56-4.29,30.6,30.6,0,0,0,11.33-11.83,38.2,38.2,0,0,0,0-34.49ZM406,628.35,389.75,668H421.9Zm431.69-89.08c-99.16,1.21-198.32.42-297.45.42q-150.58,0-301.14,0c-34.19,0-55.13,21.11-55.23,55.41q-.11,58.65,0,117.31c.12,33.53,21.48,54.72,55,54.74H841.14c33.92,0,55.16-21.36,55.23-55.5,0-37.86-1-75.78.3-113.62C897.78,564.4,874.77,538.83,837.65,539.27ZM278.2,670.73a40,40,0,0,1-22.59,22.86,46,46,0,0,1-17.44,3.18H218a5.61,5.61,0,0,1-4.11-1.68A5.53,5.53,0,0,1,212.2,691V615.47a5.44,5.44,0,0,1,1.68-4.16,5.67,5.67,0,0,1,4.11-1.63h20.18a46,46,0,0,1,17.44,3.18,40.1,40.1,0,0,1,22.59,22.81,47.52,47.52,0,0,1,3.13,17.49A48,48,0,0,1,278.2,670.73Zm64.89-23.26a5.75,5.75,0,0,1,4.11,1.5,5.5,5.5,0,0,1,0,7.71,5.74,5.74,0,0,1-4.11,1.5h-32V686h44.59a5.89,5.89,0,0,1,4.14,1.45,5,5,0,0,1,1.55,3.79,5.31,5.31,0,0,1-1.55,4,5.81,5.81,0,0,1-4.14,1.5H305.3a5.72,5.72,0,0,1-5.81-5.81V615.47a5.53,5.53,0,0,1,1.68-4.16,5.69,5.69,0,0,1,4.14-1.63h50.38a5.7,5.7,0,0,1,4.14,1.5,5.31,5.31,0,0,1,1.55,4,5,5,0,0,1-1.55,3.79,5.87,5.87,0,0,1-4.14,1.43H311.09v27.1Zm99.18,46.78a5.41,5.41,0,0,1-4.85,2.51,5.72,5.72,0,0,1-3.18-1,5.43,5.43,0,0,1-2.19-2.61l-6.28-15.62h-40l-6.38,15.62a5.64,5.64,0,0,1-2.27,2.66,5.86,5.86,0,0,1-3.08.91,5.41,5.41,0,0,1-4.8-2.69,5.77,5.77,0,0,1-.32-5.69l31.34-74.82c1.11-2.59,2.93-3.89,5.44-3.89a5.42,5.42,0,0,1,5.47,3.89l31.43,75A5.9,5.9,0,0,1,442.27,694.25Zm79.65-23.53a40,40,0,0,1-22.57,22.86,46.23,46.23,0,0,1-17.47,3.18H461.71a5.61,5.61,0,0,1-4.11-1.68,5.53,5.53,0,0,1-1.68-4.14V615.47a5.44,5.44,0,0,1,1.68-4.16,5.67,5.67,0,0,1,4.11-1.63h20.18a46.23,46.23,0,0,1,17.47,3.18,40.15,40.15,0,0,1,22.57,22.81A47,47,0,0,1,525,653.16,47.5,47.5,0,0,1,521.92,670.73Zm64.89-23.26a5.75,5.75,0,0,1,4.11,1.5,5.5,5.5,0,0,1,0,7.71,5.74,5.74,0,0,1-4.11,1.5h-32V686H599.4a5.85,5.85,0,0,1,4.14,1.45,5,5,0,0,1,1.55,3.79,5.31,5.31,0,0,1-1.55,4,5.77,5.77,0,0,1-4.14,1.5H549A5.72,5.72,0,0,1,543.2,691V615.47a5.53,5.53,0,0,1,1.68-4.16,5.73,5.73,0,0,1,4.14-1.63H599.4a5.66,5.66,0,0,1,4.14,1.5,5.31,5.31,0,0,1,1.55,4,5,5,0,0,1-1.55,3.79,5.83,5.83,0,0,1-4.14,1.43H554.81v27.1Zm44,19a33.77,33.77,0,0,0,6.85,10.86,31.82,31.82,0,0,0,10.2,7.32,30.66,30.66,0,0,0,23.13.67,40.62,40.62,0,0,0,9.76-5.42,6,6,0,0,1,4-1.28,5,5,0,0,1,3.28,1.58,5.19,5.19,0,0,1,1.35,3.84,5.59,5.59,0,0,1-.44,2.17,6,6,0,0,1-1.36,1.95,44.57,44.57,0,0,1-12.86,7.24A42.52,42.52,0,0,1,629.67,685a44.16,44.16,0,0,1-9.14-14.21,46.5,46.5,0,0,1-3.28-17.61,45.88,45.88,0,0,1,3.28-17.44,44.48,44.48,0,0,1,9.14-14.17A43.25,43.25,0,0,1,643.35,612a41.53,41.53,0,0,1,16.95-3.45,43.78,43.78,0,0,1,14.76,2.22,42.66,42.66,0,0,1,12.44,7.37,5.69,5.69,0,0,1,1.38,1.4,4.23,4.23,0,0,1,.69,1.43,8.91,8.91,0,0,1,.15,1.75,4.55,4.55,0,0,1-1.5,3.5,5.71,5.71,0,0,1-3.62,1.55,5.79,5.79,0,0,1-4.11-1.38,32.52,32.52,0,0,0-8.55-5.47,29.9,29.9,0,0,0-11.63-1.9,29,29,0,0,0-12.39,2.69,32.35,32.35,0,0,0-10.2,7.37A33.5,33.5,0,0,0,630.86,640a35.15,35.15,0,0,0-2.46,13.2A35.52,35.52,0,0,0,630.86,666.49Zm158.31,4.68A40.88,40.88,0,0,1,766,694.57a50.3,50.3,0,0,1-35.84,0,40.68,40.68,0,0,1-14-9.24,42.39,42.39,0,0,1-9.09-14.17,51.65,51.65,0,0,1,0-35.94,42.17,42.17,0,0,1,9.09-14.12,41.09,41.09,0,0,1,14-9.26,50.66,50.66,0,0,1,35.84,0,41.12,41.12,0,0,1,23.13,23.38,51.29,51.29,0,0,1,0,35.94Zm78.49,22.74a5.15,5.15,0,0,1-5,2.86,6.1,6.1,0,0,1-2.86-.67,5.93,5.93,0,0,1-2.17-2.12l-19.14-30.84c-.69,0-1.35,0-2,0H822.17V691a5.68,5.68,0,0,1-1.63,4.14,5.57,5.57,0,0,1-4.16,1.68,5.72,5.72,0,0,1-5.81-5.81V615.47a5.53,5.53,0,0,1,1.68-4.16,5.69,5.69,0,0,1,4.14-1.63h20.05a30.62,30.62,0,0,1,14.83,3.52,25.7,25.7,0,0,1,10.1,9.63A27.53,27.53,0,0,1,865,637.1a24.76,24.76,0,0,1-13.72,22.76c-.39.2-.79.39-1.18.57l17,27.42C868.44,690,868.64,692,867.65,693.91ZM853.83,637.1a17,17,0,0,0-2.22-8.7,15.83,15.83,0,0,0-6.13-5.89,18.51,18.51,0,0,0-9-2.14H822.17V652.5h14.26a19.93,19.93,0,0,0,9-1.95,15.35,15.35,0,0,0,6.13-5.47A14.63,14.63,0,0,0,853.83,637.1ZM772,628.8a31.61,31.61,0,0,0-10.52-7.19,35.95,35.95,0,0,0-26.66,0,31.16,31.16,0,0,0-10.47,7.19,33.3,33.3,0,0,0-6.87,10.86,38.58,38.58,0,0,0,0,27,33,33,0,0,0,6.87,10.86,31.64,31.64,0,0,0,10.47,7.24,35,35,0,0,0,26.66,0,32,32,0,0,0,17.39-18.11,39.33,39.33,0,0,0,0-27A32.12,32.12,0,0,0,772,628.8Zm-273.55-4.63a32.08,32.08,0,0,0-16.56-4.24H467.5v66.56h14.39a31.64,31.64,0,0,0,16.56-4.29,30.6,30.6,0,0,0,11.33-11.83,38.2,38.2,0,0,0,0-34.49A30.33,30.33,0,0,0,498.44,624.16ZM389.75,668H421.9L406,628.35ZM406,628.35,389.75,668H421.9Zm103.81,7.54a30.33,30.33,0,0,0-11.33-11.73,32.08,32.08,0,0,0-16.56-4.24H467.5v66.56h14.39a31.64,31.64,0,0,0,16.56-4.29,30.6,30.6,0,0,0,11.33-11.83,38.2,38.2,0,0,0,0-34.49Zm269.09,3.77A32.12,32.12,0,0,0,772,628.8a31.61,31.61,0,0,0-10.52-7.19,35.95,35.95,0,0,0-26.66,0,31.16,31.16,0,0,0-10.47,7.19,33.3,33.3,0,0,0-6.87,10.86,38.58,38.58,0,0,0,0,27,33,33,0,0,0,6.87,10.86,31.64,31.64,0,0,0,10.47,7.24,35,35,0,0,0,26.66,0,32,32,0,0,0,17.39-18.11,39.33,39.33,0,0,0,0-27Zm0,0A32.12,32.12,0,0,0,772,628.8a31.61,31.61,0,0,0-10.52-7.19,35.95,35.95,0,0,0-26.66,0,31.16,31.16,0,0,0-10.47,7.19,33.3,33.3,0,0,0-6.87,10.86,38.58,38.58,0,0,0,0,27,33,33,0,0,0,6.87,10.86,31.64,31.64,0,0,0,10.47,7.24,35,35,0,0,0,26.66,0,32,32,0,0,0,17.39-18.11,39.33,39.33,0,0,0,0-27Zm-269.09-3.77a30.33,30.33,0,0,0-11.33-11.73,32.08,32.08,0,0,0-16.56-4.24H467.5v66.56h14.39a31.64,31.64,0,0,0,16.56-4.29,30.6,30.6,0,0,0,11.33-11.83,38.2,38.2,0,0,0,0-34.49ZM406,628.35,389.75,668H421.9Zm0,0L389.75,668H421.9Zm103.81,7.54a30.33,30.33,0,0,0-11.33-11.73,32.08,32.08,0,0,0-16.56-4.24H467.5v66.56h14.39a31.64,31.64,0,0,0,16.56-4.29,30.6,30.6,0,0,0,11.33-11.83,38.2,38.2,0,0,0,0-34.49Zm0,0a30.33,30.33,0,0,0-11.33-11.73,32.08,32.08,0,0,0-16.56-4.24H467.5v66.56h14.39a31.64,31.64,0,0,0,16.56-4.29,30.6,30.6,0,0,0,11.33-11.83,38.2,38.2,0,0,0,0-34.49ZM406,628.35,389.75,668H421.9Zm0,0L389.75,668H421.9Zm103.81,7.54a30.33,30.33,0,0,0-11.33-11.73,32.08,32.08,0,0,0-16.56-4.24H467.5v66.56h14.39a31.64,31.64,0,0,0,16.56-4.29,30.6,30.6,0,0,0,11.33-11.83,38.2,38.2,0,0,0,0-34.49Zm0,0a30.33,30.33,0,0,0-11.33-11.73,32.08,32.08,0,0,0-16.56-4.24H467.5v66.56h14.39a31.64,31.64,0,0,0,16.56-4.29,30.6,30.6,0,0,0,11.33-11.83,38.2,38.2,0,0,0,0-34.49ZM406,628.35,389.75,668H421.9Zm0,0L389.75,668H421.9Z"/></svg>