<svg id="Layer_1" data-name="Layer 1" xmlns="http://www.w3.org/2000/svg" viewBox="0 0 1080 1080"><defs><style>.cls-1{fill:#C9A44C;}</style></defs><title>Icons</title><path class="cls-1" d="M540.48,960.93H190.09c-31.44,0-46.63-15.31-46.63-47q0-209.94-.24-419.88A36,36,0,0,0,137.74,476c-14-22.22-21.91-46-19.86-72.35q9.63-123.65,20-247.24c1.88-22.48,18.46-37.27,41.22-37.28q360.82-.1,721.63,0c23.5,0,39.28,14.46,41.25,38.08,7,83.38,14,166.77,20.22,250.21,1.8,24.07-6.19,46.12-18.71,66.74a38.84,38.84,0,0,0-5.58,19.07q-.47,210.43-.24,420.87c0,31.55-15.28,46.85-46.79,46.85Zm206.77-482c-28.8,35.7-65.42,53.62-111.34,47.79-45.61-5.79-76.53-32.23-95.92-74-19.58,42.61-50.83,68.33-96.27,74-45.74,5.74-82.34-12.2-111-47.64-38,45.55-84.78,59.18-140.82,41V912.74h62.77c0-4.41,0-8.31,0-12.21q0-130.52,0-261c0-27.7,16.08-43.86,43.59-43.89q74.44-.07,148.88,0c30.36,0,45.76,15.38,45.77,45.71q0,130,0,260v11.11H889.29V519.7C832.66,538.45,785.93,524.83,747.25,478.93ZM375,167.22a21.41,21.41,0,0,0-.88,3.06c-5.37,79.16-11.12,158.29-15.91,237.48-2.15,35.48,24.43,65.87,60.77,71.92,33.32,5.54,68-16,77.56-49.26,2.88-10,3.42-20.82,4.1-31.33C504,348,507,296.8,510.06,245.65c1.56-26,3-51.93,4.55-78.43Zm-189.78.07c-.52,4-1.15,7.57-1.44,11.17Q178.55,242.7,173.39,307c-2.71,33.61-6.14,67.18-7.88,100.83-2,38.1,29,70.17,68,72.15,36.69,1.86,70.07-27.36,73-64.07q7.64-95.39,15.06-190.8c1.46-19,2.12-38.12,3.17-57.79Zm709.88.24H755.43c0,4.1-.21,7.42,0,10.7,5.85,78.83,11.61,157.68,17.7,236.49,3,38.45,37.87,68.36,75.21,65.11,40.43-3.52,69-36.48,65.89-76q-6.34-80.12-12.7-160.24C899.53,218.33,897.3,193,895.13,167.52Zm-329-.35c0,4.05-.17,7.33,0,10.58C570.79,255,575.76,332.21,580,409.46c2.2,40.3,33.54,71.45,72.28,70.31,41-1.2,71.33-34.17,69.17-75.91q-3.8-73.3-8.66-146.55c-2-29.95-4.81-59.84-7.29-90.14ZM302.72,912.56H444.46V643.79H302.72Z"/><path class="cls-1" d="M692.48,595.6c35.71,0,71.43-.06,107.14,0,26.24.06,42.66,16.45,42.71,42.75q.13,76.39,0,152.78c0,26.24-16.5,42.67-42.78,42.7q-108.13.1-216.27,0c-26.24,0-42.66-16.5-42.7-42.76q-.11-76.39,0-152.78c0-26.25,16.48-42.62,42.77-42.68C619.73,595.54,656.1,595.6,692.48,595.6Zm101.78,48.18H588.83V785.51H794.26Z"/></svg>