<svg id="Layer_1" data-name="Layer 1" xmlns="http://www.w3.org/2000/svg" viewBox="0 0 1080 1080"><defs><style>.cls-1{fill:#C9A44C;}</style></defs><title>Icons</title><path class="cls-1" d="M290.3,277.19c0-10,0-19,0-28.07,0-11.39-.28-22.79.18-34.16,1.2-30.21,23.49-52.6,53.69-54.3,1.52-.09,3-.12,4.55-.12q189.81,0,379.63,0c28.22,0,49.95,15.88,56.65,41.41a79,79,0,0,1,2.17,18.75c.28,18.44.1,36.88.1,56.37,8.81,0,17.08,0,25.34,0,39.42.12,64.59,25.18,64.58,64.46,0,10.87.41,21.85-1,32.57-2.19,16.73-11,30.08-23.84,41-2.44,2.09-4.59,6.11-4.6,9.24q-.34,206.9-.17,413.79c0,2,.32,3.93.57,6.8,4.55,0,8.78,0,13,0,21.42.28,37.36,15.51,38,36.27.62,20.23-15.27,36.9-36.36,38.12-2,.12-4,.09-6.07.09q-316.61,0-633.22-.06a63.21,63.21,0,0,1-15.77-1.65c-17.43-4.54-28.79-21.92-26.64-40,2.18-18.33,16.82-32.06,35.06-32.74,5-.19,10,0,15.66,0,.16-3.51.39-6.2.39-8.9q0-205,.11-410c0-5-1.38-8.18-5.49-11.35-15.75-12.17-24-28.5-24-48.47,0-14.13-.69-28.54,1.77-42.32,4.75-26.62,29.08-46,56.19-46.75C270.1,277,279.46,277.19,290.3,277.19Zm541,193.61H248.82V844.45h61c0-3.76,0-7,0-10.27q0-134.39,0-268.79c0-28.67,16.67-45.12,45.36-45.13,45.56,0,91.14.84,136.66-.32,27.18-.7,47.42,18,47.13,46.91-.9,89.59-.33,179.19-.33,268.79v8.83H831.32Zm-.06-44.62c-14.58,3-28,2.78-41-2.91-12.87-5.61-22.38-15.15-30.48-26.56-26,40.42-81.49,43.25-110.32.19-13.14,19.59-30.74,31.47-54.84,31.29-23.83-.18-41.53-11.83-54.78-31.46-13.39,20.33-31.22,31.33-54.89,31.44-24,.11-41.42-12.19-54.81-31.61-13.52,20.42-31.48,31.71-55.48,31.6S333.2,415.85,320,395.8c-17.23,26.4-40.84,36.66-71.31,30.56v27.87H831.26ZM658.5,293c0,27.68,0,54.68,0,81.68a9.4,9.4,0,0,0,.5,2.21,47.36,47.36,0,0,0,50.81,35.39c22.67-2.41,40.74-21,41.41-44.15.69-24,.22-48.05.21-72.08a13.87,13.87,0,0,0-.76-3Zm-220.12-.08c0,26.72-.08,52.73.11,78.74,0,3.18,1.28,6.44,2.37,9.51,7.51,21.13,29.22,34.27,50.9,30.91,23.46-3.64,39.9-22.83,40.31-47.9.36-22.26.09-44.54,0-66.81a27.71,27.71,0,0,0-.75-4.45ZM312,292.66c-14.87,0-29,0-43.09,0a85.62,85.62,0,0,0-9.84.32c-21.9,2.59-38,17.88-40.18,39.81a188.34,188.34,0,0,0,0,37.83c2.56,24.58,22.7,42,46.78,41.84,23.25-.11,44.63-18.85,46-43C313.09,344.3,312,319,312,292.66Zm50.45,414.7c0-5.55.11-11.11,0-16.66-.13-5.12-3.08-8.83-8-7.66-2.93.7-6.93,4.8-7.15,7.62-.84,10.79-.43,21.68-.3,32.53.06,5.1,3.15,8.83,8,7.73,2.92-.67,6.42-4.66,7.15-7.75C363.31,718.16,362.44,712.65,362.45,707.36Z"/><path class="cls-1" d="M758,579.71c-2,3.13-3.12,5.74-5,7.61q-46.57,46.78-93.3,93.38c-3.93,3.93-8.27,5.35-12.52.87-4-4.19-2.38-8.31,1.28-12,31.29-31.3,62.51-62.66,94-93.74,2-2,6.4-2.88,9.35-2.37C754.11,573.89,755.81,577.33,758,579.71Z"/><path class="cls-1" d="M699.27,564.17c2.35,1.94,5.89,3.45,6.35,5.61.62,2.89-.16,7.15-2.06,9.31-6.48,7.37-13.71,14.07-20.67,21q-9.36,9.36-18.73,18.7c-3.74,3.72-8,4.8-11.93.77s-2.84-8.21.89-11.94c13-13,26-26.08,39.07-39C693.88,567,696.29,566,699.27,564.17Z"/></svg>