<svg id="Layer_1" data-name="Layer 1" xmlns="http://www.w3.org/2000/svg" viewBox="0 0 1080 1080"><defs><style>.cls-1{fill:#C9A44C;}</style></defs><title>Icons</title><path class="cls-1" d="M477.07,135.69c1.82.9,3.62,1.87,5.47,2.7,15.51,6.92,22.18,19.21,22.15,35.81q-.11,60,0,120c0,3.12,0,6.24,0,10.47h8.92c26.05,0,52.11.14,78.16,0,17.2-.12,30.43,6.75,39.93,21.07,15.41,23.23,31.35,46.12,46.07,69.78,4.52,7.26,5.59,16.63,8.56,24.92,1.32,3.68,2.67,7.89,5.34,10.46,8.71,8.38,18.74,15.48,26.91,24.33,5.85,6.33,11.67,14.09,13.88,22.19Q779.83,651.53,826.11,826c6.7,25.07-3.32,42.34-28.28,49.1q-52.48,14.22-105,28.17c-4.46,1.18-6.71,2.91-7.92,7.93a42.45,42.45,0,0,1-41.9,33q-173.69.18-347.38,0c-23.5,0-41.44-17.18-43.32-40.56-.27-3.4-.26-6.84-.26-10.25q0-232.12-.13-464.23c0-14.49,3.28-27.18,11.74-39.16,14.25-20.19,27.86-40.85,41.18-61.67,10.45-16.32,24.64-24.16,44.12-23.78,25.25.49,50.53.12,75.79.12h8.91c0-3.64,0-6.68,0-9.72,0-37.9.7-75.81-.27-113.68-.57-22.07,6.63-37.73,27.94-45.59Zm-82.14,296c-10.2-14-11.92-28.42-2.74-43,9.45-15,24.71-17.22,40.76-16.22V328.36c-28.81,0-56.94.23-85.06-.12-10.32-.13-17.3,3.86-22.85,12.43Q304,373.13,282.17,405a36.08,36.08,0,0,0-6.53,21.36q.17,203.3.1,406.59c0,2.75.29,5.5.44,8.17h386c.16-2.31.41-4.12.41-5.94q0-205.67-.19-411.33a31.73,31.73,0,0,0-4.82-16.17c-14.75-23-30.22-45.59-45.27-68.43-4.92-7.47-11.41-11-20.43-11-26.84.2-53.69.06-80.53.09-2,0-4.07.31-6.23.49v43.91c16.59-1.54,31.66,1.06,41.11,16.06s7,29.46-2.82,43.1c9.6,12.93,11.68,26.46,4.25,40.36s-20,19-35.56,18.81c-28.94-.32-57.9-.07-86.84-.12a54.22,54.22,0,0,1-10.2-.7C390.36,485.5,376.47,456.25,394.93,431.73Zm396.68,358c-.54-2.46-.82-4-1.22-5.45C764.1,686.08,737.48,588,711.83,489.64c-3.85-14.74-14.53-21.23-25-31.1V817.72ZM662.59,866H275.72c0,10.11,0,19.57,0,29,.05,19,6.63,25.59,25.65,25.59H568.26c24.21,0,48.43.08,72.64,0,13.41-.07,21.2-7.49,21.62-20.81C662.86,888.73,662.59,877.68,662.59,866Zm-182-493.67c.16-2.75.39-4.82.4-6.89q0-95.07,0-190.14a34.14,34.14,0,0,0-.32-5.5c-1.1-6.68-5.23-10.4-11.88-10.23-6.26.16-10.17,3.86-11.11,10.19a48.43,48.43,0,0,0-.33,7.08q0,93.49,0,187c0,2.76.28,5.53.44,8.5ZM686.41,879.08c1.57.33,2.13.63,2.57.51,35.74-9.5,71.5-18.94,107.18-28.66,6-1.64,9.24-6.6,8.16-12.74-1.48-8.41-4-16.64-6.25-25.66-36.63,9.82-72.3,19.35-107.92,29.08-1.51.41-3.54,2.65-3.58,4.08C686.28,856.89,686.41,868.11,686.41,879.08ZM469.11,420c15,0,29.95.07,44.92,0,9.11-.06,14.36-4.69,14.16-12.17-.19-7.15-5.28-11.44-14-11.46q-44.92-.1-89.84,0c-9.14,0-14.36,4.62-14.15,12.13.19,7.13,5.3,11.45,14,11.51C439.16,420,454.13,420,469.11,420Zm.05,23.69c-15,0-29.95-.06-44.92,0-8.79,0-13.86,4.27-14.08,11.41-.23,7.5,5,12.2,14.1,12.22q44.92.11,89.84,0c9.08,0,14.32-4.75,14.08-12.24-.23-7.14-5.3-11.35-14.1-11.4C499.11,443.59,484.14,443.65,469.16,443.65Z"/><path class="cls-1" d="M469,702c-25.25,0-50.5.07-75.75,0-20-.07-28.47-6.93-33.22-26.49q-9.86-40.57-19.8-81.13c-1.49-6.1-2.71-12.9,3.7-16.22,3.73-1.93,9.9-2,13.79-.31C374,585,390,593.1,405.87,601.26c4.85,2.49,7.49,2.26,10.89-2.48,13-18.17,26.54-36,39.89-53.89,9-12,16.14-12,25.27.26,13.37,17.91,26.83,35.75,39.93,53.85,3.1,4.28,5.63,4.89,10.29,2.49,15.64-8.06,31.52-15.64,47.26-23.51,5.24-2.62,10.4-4,15.49,0s4.91,9.53,3.55,15.14c-6.91,28.59-13.73,57.2-20.84,85.74-3.89,15.6-13.49,22.87-30.48,23C521.08,702.12,495,702,469,702Zm101-92.25c-3,1.23-4.87,1.89-6.66,2.77-11.1,5.39-22.15,10.91-33.29,16.23C521,633,517.28,632,511.1,624c-1.44-1.87-2.81-3.81-4.23-5.7l-37.69-50.5C455.3,586.43,442,604.3,428.69,622.15c-7.82,10.48-10.95,11.23-22.52,5.55-12.16-6-24.3-12-37.88-18.63,5.16,21.39,10.22,41.17,14.59,61.1,1.44,6.59,4.6,8.29,10.88,8.22,23.67-.28,47.35-.11,71-.11,26.83,0,53.66.13,80.49-.19,3,0,8.2-2,8.75-4.08C559.68,653,564.59,631.88,570,609.71Z"/><path class="cls-1" d="M469.18,725.66c25,0,50-.07,74.94,0,19.36.07,29.64,11,30.7,30.28,1.66,30.33-10.52,41.71-40.19,41-45.46-1-91-.25-136.46-.28-24.45,0-34.47-10.07-34.48-34.46,0-2.63-.06-5.26,0-7.89.53-17.31,11.62-28.52,29-28.66C418.17,725.51,443.67,725.66,469.18,725.66Zm.23,23.69c-24.47,0-49,.16-73.42-.11-6.5-.07-9.35,2.15-8.64,8.69a23.84,23.84,0,0,1,0,5.52c-.9,7.19,2.07,9.73,9.36,9.7q72.24-.34,144.48,0c7.54,0,10.88-2.38,9.83-10a19,19,0,0,1,0-4.73c.8-6.81-2-9.27-9-9.18C517.83,749.54,493.62,749.35,469.4,749.35Z"/></svg>