<svg id="Layer_1" data-name="Layer 1" xmlns="http://www.w3.org/2000/svg" viewBox="0 0 1080 1080"><defs><style>.cls-1{fill:#C9A44C;}</style></defs><title>Icons</title><path class="cls-1" d="M408.64,324.32c-13.85-4.84-23.41-11.9-27.57-24.3-4.51-13.48-1.28-25.48,7.31-36.59,2.65-3.43,5-7.8,5.6-12,7.27-49.48,33-85.47,77.69-107.95,1-.52,2.52-.78,3-1.63,10.79-18.39,30.08-16.82,46.85-18.1,15.28-1.17,31,2,46.39,4,8.05,1,15.84,3.42,19.49,12.37.78,1.91,4.09,2.88,6.34,4.07,43.09,22.88,68.53,58.26,75.82,106.64.57,3.78,1.78,8.07,4.16,10.89,19,22.46,13,49.06-13.91,60.81-1,.42-1.83,1-3.82,2.09,2.65,1.34,4.26,2.3,6,3,22.63,9,36.53,28.71,36.61,51.94S684.69,422.65,662.48,432c-3,1.25-6.36,5-6.88,8.08C650,473.29,634,500.17,607.5,520.82c-7.66,6-9.18,23.46-2.57,30.62.2.21.41.41.61.62,24,25.27,24,25,66.84,29.41,15.16,1.58,30.08,5.25,45.18,7.54,2.12.32,5.61-1.15,6.78-2.91,12.38-18.77,33.92-22.31,55.73-13.31,19.07,7.87,33,21.26,40,40.93,5,14,3.47,27.34-6.46,39.11-3.15,3.73-6.08,7.64-9.1,11.45,8.44,5,17,9.08,24.37,14.77,14,10.84,24.08,24.91,24,43.18,0,8.1-3.22,17.1-7.6,24C838,757.7,828.88,768,820.11,778.35c-3.51,4.15-3.82,7.61-1.7,12.47,5.9,13.5,11.68,27.08,16.68,40.93a26.9,26.9,0,0,1,.82,15C827.61,878.9,818.79,910.94,810,943c-2.93,10.73-6.68,13.5-18,13.5q-260.08,0-520.15,0c-11.73,0-15.25-2.66-18.37-14.11-8.68-31.78-17.46-63.53-25.65-95.43a27,27,0,0,1,1-15.77c28-69.4,56.43-138.63,84.7-207.93,11.11-27.24,32.94-37.7,60.67-40.09,19-1.63,37.91-4.47,56.82-7a13.89,13.89,0,0,0,7.36-3.56c7-6.87,13.76-14.06,20.48-21.25,6.18-6.61,4.76-24.7-2.21-30.1-26.84-20.76-43.09-47.79-48.58-81.37-.45-2.77-3-6.35-5.44-7.45-24.55-10.88-37.69-29.17-37.55-53.13.14-23.75,13.81-42.41,38.41-52.44C404.61,326.41,405.59,325.84,408.64,324.32ZM379.75,785.18c17-.45,31.94,4.5,44.55,16.13,1.88,1.74,5.1,2.65,7.77,2.83,36.08,2.4,72.16,4.7,108.26,6.65a11.86,11.86,0,0,0,8.58-3.91q73.16-91.49,145.84-183.37c2.08-2.63,2.91-6.26,4.91-10.73-27.33-3.45-52.79-6.71-78.27-9.77a5.3,5.3,0,0,0-4.15,2.24c-11.23,19.18-24.18,37.64-32.95,57.91C570.09,696,558.59,730,546.13,763.57c-2.52,6.78-6.13,12-13.93,12.18-8.26.16-12.12-5.21-14.65-12.38-4.34-12.25-9.2-24.31-13.62-36.53-14.82-41-29.65-82.09-55.28-118.06-1.66-2.33-4.46-5.75-6.49-5.59-11.69.91-23.31,2.74-35.34,4.32,0,28-1.4,55.3.41,82.34,1.64,24.47-3.63,45.58-19.86,63.82C379.46,762.56,377.4,772.79,379.75,785.18ZM573,928.72c49.77,0,99.53-.13,149.3.16,6.31,0,9.1-1.89,11-7.85q7.38-23.55,16-46.71c2-5.27,1.31-8.32-3.37-11.52a288,288,0,0,1-25-18.73c-3.48-3-7.95-8-7.57-11.71,1.72-16.84-8.21-21.17-21.7-22.91a36.89,36.89,0,0,1-7.53-2c-5-1.77-8.4-.94-11.34,4.09-4.8,8.23-10.71,15.8-15.65,24-4.58,7.58-10.77,10.34-19.55,9.76-67.54-4.42-135.11-8.49-202.64-13-6-.4-8.77,1.49-11.4,6.46-13.72,26-16.84,53-10,81.55,1.55,6.43,4.07,8.7,11,8.65C474,928.57,523.51,928.72,573,928.72ZM434.68,324.52c0,33.78-.5,66.7.12,99.61,1,51.05,42.49,92.62,93.53,94.49,53.72,2,99.48-40.61,100.59-94.37.66-32.08.16-64.18.14-96.28a19,19,0,0,0-.68-3.45ZM379,611.44c-24.37.4-33.08,6.25-41.7,27.35-26.31,64.44-52.76,128.83-78.76,193.4a31,31,0,0,0-1.18,17.25c3.54,16.06,8.21,31.88,12.52,47.76,2.84,10.49,5.82,20.94,8.58,30.86h52.09c-12-39.11-9.1-76.36,10.94-111.21,7.08-12.31,11.5-24.27,9.7-38.28-1.88-14.61,1.92-27.39,11.79-38.35,13.76-15.28,17.81-33.05,16.34-53.44C377.9,666.63,379,646.3,379,626Zm125-457.2c0,23.67.38,46.52-.29,69.33-.15,5.2-2.84,11.19-6.23,15.25a228.35,228.35,0,0,1-23.24,23.36,30.06,30.06,0,0,1-12.7,6.56c-14.91,3.47-30,6.09-45,9.22-6,1.25-10.32,4.73-9.54,11.37.73,6.23,5.71,7.09,11.06,7.09q113.71-.07,227.42,0c5.36,0,10.29-.88,11.07-7.1s-3.07-9.73-8.72-11.13c-6.17-1.53-12.38-3.47-18.66-3.82-25.21-1.44-44.59-12.73-60.5-32.1-5.88-7.16-9.52-13.6-9.28-23,.56-21.61.18-43.25.18-65A110.15,110.15,0,0,0,504.08,154.25ZM727.53,627.08,579.39,813.52c17.63,1.1,33.39,1.81,49.09,3.22,5.3.48,8.48-.66,11.33-5.28,5.9-9.59,11.79-19.32,19-27.93,3.18-3.82,9.54-7.08,14.32-6.9,5.28.2,7.7-1.26,10.54-4.88,15.53-19.78,31.24-39.42,46.88-59.1L771,661.71C752.22,655.2,737.92,644.08,727.53,627.08Zm17.3,201.52L801.73,757c-18.79-6.41-33-17.55-43.5-34.61l-49.56,62.55c26.82,8,26.82,8,31.09,34.33.09.57,0,1.25.23,1.7C741.32,823.19,742.74,825.34,744.82,828.59ZM387,928.72c-9.77-39.23-4.28-75.37,16.59-111.53-8.69-1.53-15.5-3.21-22.39-3.68a10.46,10.46,0,0,0-7.89,3.93c-20.06,29.36-27.44,61.26-18,96.18,4.08,15.13,4.19,15.1,20.12,15.1Zm398.26-.3c6.56-24.32,11.57-48.77,19.93-72,6.66-18.52-4.23-31-9.06-47.7l-28.3,35.65c2.07,1.69,3.6,3,5.19,4.22,9.43,7.3,10.57,11,6.75,22.29-1.29,3.82-2.69,7.61-4,11.43-5.22,15.18-10.42,30.36-15.84,46.14ZM531.86,618.51c-8.07,10.73-15.5,20-22.09,29.76a13.82,13.82,0,0,0-1.52,10.66c5.19,15.28,11.12,30.31,16.83,45.42,2,5.2,4,10.36,6.92,17.72,8.84-23.64,16.84-44.87,24.63-66.19a6.77,6.77,0,0,0-.85-5.42C548.17,640,540.33,629.76,531.86,618.51ZM476.26,172.13c-29.27,18.37-46.81,42.63-53.59,76.13,6-1.06,10.76-2.65,15.51-2.6,17,.18,25.75-12.37,36-22.58a7.13,7.13,0,0,0,2-4.51C476.32,203.68,476.26,188.8,476.26,172.13Zm111.18.14c0,11.48.89,21.13-.21,30.55-1.57,13.33,3.58,22.32,12.9,31.63,11.88,11.87,26.64,9.35,41.17,14.33C633.77,214.86,616.65,190.43,587.44,172.27ZM531.88,577.86c13-9.71,25.57-18.88,37.8-28.54,2.31-1.82,3.09-5.58,5.72-10.64-30,10.06-57.25,10-85.32,1.75.9,3.67,1.95,7.29,4.36,9.19C506.46,559.09,518.85,568.11,531.88,577.86Zm283.28,153c9.33.38,12.76-4.18,9.1-13.1-6-14.72-17.25-23.53-32.85-26.3-9.41-1.67-13.56,3.58-10.77,12.77C784.56,717.14,801.66,730.33,815.16,730.89Zm-30-95.39c8.68.1,11.51-4.14,8.69-13-4-12.69-21.17-25.83-34.68-26.57-8.26-.45-11.7,3.88-9.46,11.95C753.52,621.65,771,635.32,785.13,635.49Zm-293.66-9.57,20.91-27.87-34.45-25.85-12,11.19Zm94.44-53.83-34.49,26,20.84,27.84,25.5-42.49ZM406.34,356c-9.3,6.71-13.78,14.58-13.27,24.77.46,9.21,4,16.94,13.27,22Zm251,47c9.47-5.78,13.3-13.71,13.28-23.36s-4-17.53-13.28-23Z"/><path class="cls-1" d="M532.66,477c-6,0-10.36.25-14.67-.05-8.26-.58-13.83-6.3-13.84-13.83s5.49-13.31,13.78-13.75c6.05-.32,12.14-.28,18.21-.08,10.28.34,19.23-2.52,27.1-9.37,7.2-6.27,15.44-5.95,20.76.14s4.47,14.22-2.52,20.68C567.18,473.92,550,478.21,532.66,477Z"/><path class="cls-1" d="M525,435.18c-2.88,0-5.81.36-8.62-.07-9.2-1.4-14.75-10-11.15-18.48a335.48,335.48,0,0,1,14.89-30.15c3.69-6.7,11.5-8.54,18-5.25s9.52,10.48,6.35,17.54c-2.76,6.15-4.59,11-.12,17.86,4.78,7.33-1.54,17-10.7,18.48C530.85,435.56,527.91,435.18,525,435.18Z"/><path class="cls-1" d="M462.46,365.88a22.52,22.52,0,0,1,45-.53,22.52,22.52,0,1,1-45,.53Z"/><path class="cls-1" d="M578.72,343.4A22.43,22.43,0,0,1,601.27,366a22.51,22.51,0,0,1-45,.08A22.47,22.47,0,0,1,578.72,343.4Z"/></svg>