<svg id="Layer_1" data-name="Layer 1" xmlns="http://www.w3.org/2000/svg" viewBox="0 0 1080 1080"><defs><style>.cls-1{fill:#C9A44C;}</style></defs><title>Icons</title><path class="cls-1" d="M760.41,465.53c-56,61.63-155.92,68.3-219.42,1.25-29.4,31.35-65.67,47.71-108.77,47.81-43.38.1-79.37-17-111.12-51-2.07,3.38-3.37,6.85-5.76,9.23-60.47,60.45-159.13,55.09-211.42-12.27-18.73-24.14-24.1-52.28-11.66-81.08,32.8-76,66.43-151.56,99.89-227.23a133.69,133.69,0,0,1,10.67-18.86A31.66,31.66,0,0,1,227,118.68c11-1.05,22-1.82,33-1.82q283.61-.13,567.21,0c1.89,0,3.79.13,5.67,0,26.94-1.87,44.38,9.88,55.16,34.9C920.9,228,955.29,303.64,987.85,380c14.22,33.37,4.45,63.8-19.15,89.74-53.33,58.62-145.94,60.13-202.89,3.67C763.61,471.27,762.24,468.26,760.41,465.53Z"/><path class="cls-1" d="M86.63,963.35V903.72h59.62V562.66c4,1.1,6.84,1.79,9.62,2.65q84.75,26.38,162.34-16.7c5.54-3.09,9.52-3.33,15.25-.2,65.51,35.79,131.66,36,197.77,1.87,8-4.16,13.33-3.75,21.22.35,64.8,33.63,129.88,33,194.53-.65,6.52-3.4,11.16-3.81,17.94-.13,50.65,27.46,103.81,32.53,159,16.22,2.69-.79,5.33-1.74,9.12-3V903.38h60.4v60Zm695-60.29c.19-1.89.43-3.1.43-4.31q0-128.1.12-256.21c0-8.74-3.82-11.5-12.09-11.45-41.6.21-83.2.09-124.79.1-13.47,0-14.49,1-14.49,14.55q0,123.85,0,247.7v9.63ZM479.53,782.12c0-46.68,0-92.34,0-138,0-11.49-1.49-12.92-13.24-12.93q-77,0-154.09,0c-13.08,0-14.19,1.09-14.2,13.89q0,64.28,0,128.57c0,2.73.32,5.46.51,8.48Z"/></svg>