<svg id="Layer_1" data-name="Layer 1" xmlns="http://www.w3.org/2000/svg" viewBox="0 0 283.46 283.46"><defs><style>.cls-1{fill:#e1a95f;}.cls-2{fill:#fff;}</style></defs><title>Favicon</title><rect class="cls-1" x="0.23" y="0.23" width="283" height="283"/><path class="cls-2" d="M243.53,168.53a8.84,8.84,0,0,1-12.53,0L141.74,79.27,52.45,168.53a8.84,8.84,0,0,1-12.53,0,8.86,8.86,0,0,1,0-12.51L141.67,54.28l.07.07.07-.07L243.53,156A8.85,8.85,0,0,1,243.53,168.53Z"/><rect class="cls-2" x="105.94" y="141.94" width="30.56" height="30.56"/><rect class="cls-2" x="142.61" y="141.94" width="30.56" height="30.56"/><rect class="cls-2" x="105.94" y="178.61" width="30.56" height="30.56"/><rect class="cls-2" x="142.61" y="178.61" width="30.56" height="30.56"/></svg>