<svg id="Layer_1" data-name="Layer 1" xmlns="http://www.w3.org/2000/svg" viewBox="0 0 283.46 283.46"><defs><style>.cls-1{fill:#fff;}.cls-2{fill:#1d3d6e;}.cls-3{fill:#e1a95f;}</style></defs><title>Favicon</title><rect class="cls-1" x="0.23" y="0.23" width="283" height="283"/><path class="cls-2" d="M36.78,201.85a2.85,2.85,0,0,1-2.9-2.9v-37.7a2.78,2.78,0,0,1,.84-2.09,2.85,2.85,0,0,1,2.06-.81H46.86a23.05,23.05,0,0,1,8.72,1.59,20,20,0,0,1,11.28,11.39,25.37,25.37,0,0,1,0,17.52,20,20,0,0,1-11.28,11.42,23.05,23.05,0,0,1-8.72,1.59Zm2.9-5.12h7.18a15.82,15.82,0,0,0,8.27-2.14,15.3,15.3,0,0,0,5.65-5.9,19.05,19.05,0,0,0,0-17.24,15.16,15.16,0,0,0-5.65-5.85,16,16,0,0,0-8.27-2.12H39.68Z"/><path class="cls-2" d="M83.17,201.85a2.85,2.85,0,0,1-2.9-2.9v-37.7a2.78,2.78,0,0,1,.84-2.09,2.85,2.85,0,0,1,2.06-.81h25.17a2.85,2.85,0,0,1,2.06.75,2.62,2.62,0,0,1,.78,2,2.46,2.46,0,0,1-.78,1.89,2.91,2.91,0,0,1-2.06.72H86.07v13.53h16a2.85,2.85,0,0,1,2.06.75,2.76,2.76,0,0,1,0,3.84,2.85,2.85,0,0,1-2.06.75h-16V196.5h22.28a2.91,2.91,0,0,1,2.06.72,2.46,2.46,0,0,1,.78,1.89,2.62,2.62,0,0,1-.78,2,2.85,2.85,0,0,1-2.06.75Z"/><path class="cls-2" d="M141.54,202.4A21,21,0,0,1,126.25,196a22,22,0,0,1-4.57-7.1,23.26,23.26,0,0,1-1.64-8.8,22.9,22.9,0,0,1,1.64-8.72,22.08,22.08,0,0,1,4.57-7.07,21.43,21.43,0,0,1,6.82-4.76,20.68,20.68,0,0,1,8.47-1.73,21.82,21.82,0,0,1,7.38,1.11,21.26,21.26,0,0,1,6.21,3.68,3.1,3.1,0,0,1,.7.7,2.13,2.13,0,0,1,.33.72,3.91,3.91,0,0,1,.08.86,2.29,2.29,0,0,1-.75,1.75,2.89,2.89,0,0,1-3.87.08,16.54,16.54,0,0,0-4.26-2.73,14.94,14.94,0,0,0-5.82-.95,14.57,14.57,0,0,0-6.18,1.34,16.32,16.32,0,0,0-5.1,3.68,17,17,0,0,0-3.42,5.43,18.54,18.54,0,0,0,0,13.25,17,17,0,0,0,3.42,5.43,15.94,15.94,0,0,0,5.1,3.65,15.28,15.28,0,0,0,11.56.33,20.71,20.71,0,0,0,4.87-2.7,2.93,2.93,0,0,1,2-.64,2.5,2.5,0,0,1,1.64.78,2.66,2.66,0,0,1,.67,1.92,2.78,2.78,0,0,1-.22,1.09,3,3,0,0,1-.67,1,22.37,22.37,0,0,1-6.43,3.62A21.26,21.26,0,0,1,141.54,202.4Z"/><path class="cls-2" d="M188.21,202.4a23.73,23.73,0,0,1-9-1.64,20.33,20.33,0,0,1-7-4.62,21,21,0,0,1-4.54-7.07,25.78,25.78,0,0,1,0-18,21,21,0,0,1,4.54-7,20.36,20.36,0,0,1,7-4.62,25.22,25.22,0,0,1,17.91,0A20.53,20.53,0,0,1,208.7,171.1a25.77,25.77,0,0,1,0,18,20.47,20.47,0,0,1-11.56,11.7A23.53,23.53,0,0,1,188.21,202.4Zm0-5.24a16.63,16.63,0,0,0,6.66-1.31,15.9,15.9,0,0,0,8.69-9.05,19.57,19.57,0,0,0,0-13.48,16,16,0,0,0-3.43-5.43,15.72,15.72,0,0,0-5.26-3.59,17.93,17.93,0,0,0-13.31,0,15.41,15.41,0,0,0-5.24,3.59,16.56,16.56,0,0,0-3.42,5.43,19.14,19.14,0,0,0,0,13.48,16.54,16.54,0,0,0,3.42,5.43,15.73,15.73,0,0,0,5.24,3.62A16.63,16.63,0,0,0,188.21,197.17Z"/><path class="cls-2" d="M225.08,201.85a2.85,2.85,0,0,1-2.9-2.9v-37.7a2.77,2.77,0,0,1,.84-2.09,2.85,2.85,0,0,1,2.06-.81h10a15.27,15.27,0,0,1,7.41,1.75,12.86,12.86,0,0,1,5,4.82,13.76,13.76,0,0,1,1.81,7.13,12.37,12.37,0,0,1-6.85,11.36,15.89,15.89,0,0,1-7.41,1.67H228V199a2.85,2.85,0,0,1-.81,2.06A2.78,2.78,0,0,1,225.08,201.85Zm2.9-22.11h7.13a10,10,0,0,0,4.51-1,7.54,7.54,0,0,0,3.06-2.73,7.27,7.27,0,0,0,1.11-4,8.41,8.41,0,0,0-1.11-4.34,7.82,7.82,0,0,0-3.06-3,9.32,9.32,0,0,0-4.51-1.06H228Zm20.22,22.11a3,3,0,0,1-1.42-.33,2.81,2.81,0,0,1-1.09-1.06l-10-16.15,5.62-1.62,9.13,14.7a2.94,2.94,0,0,1,.28,3A2.58,2.58,0,0,1,248.19,201.85Z"/><path class="cls-2" d="M36.88,147.52a4.36,4.36,0,0,1-4.42-4.42V85.48a4.24,4.24,0,0,1,1.28-3.19,4.36,4.36,0,0,1,3.15-1.23h15.4A35.23,35.23,0,0,1,65.6,83.48a30.59,30.59,0,0,1,17.23,17.4,38.76,38.76,0,0,1,0,26.76A30.5,30.5,0,0,1,65.6,145.09a35.23,35.23,0,0,1-13.32,2.43Zm4.42-7.83h11a24.18,24.18,0,0,0,12.64-3.28,23.38,23.38,0,0,0,8.64-9,29.11,29.11,0,0,0,0-26.34,23.17,23.17,0,0,0-8.64-8.94,24.44,24.44,0,0,0-12.64-3.23h-11Z"/><path class="cls-2" d="M107.77,147.52a4.36,4.36,0,0,1-4.42-4.42V85.48a4.24,4.24,0,0,1,1.28-3.19,4.36,4.36,0,0,1,3.15-1.23h38.46a4.35,4.35,0,0,1,3.15,1.15,4,4,0,0,1,1.19,3,3.76,3.76,0,0,1-1.19,2.89,4.44,4.44,0,0,1-3.15,1.11h-34V109.9h24.42a4.35,4.35,0,0,1,3.15,1.15,4.21,4.21,0,0,1,0,5.87,4.35,4.35,0,0,1-3.15,1.15H112.19v21.27h34a4.45,4.45,0,0,1,3.15,1.11,3.77,3.77,0,0,1,1.19,2.89,4,4,0,0,1-1.19,3,4.35,4.35,0,0,1-3.15,1.15Z"/><path class="cls-3" d="M249.36,129.72a3.76,3.76,0,0,1-5.33,0l-38-38-38,38a3.76,3.76,0,0,1-5.33,0,3.77,3.77,0,0,1,0-5.32L206,81.1l0,0,0,0,43.29,43.3A3.77,3.77,0,0,1,249.36,129.72Z"/><rect class="cls-3" x="190.8" y="118.41" width="13.01" height="13.01"/><rect class="cls-3" x="206.41" y="118.41" width="13.01" height="13.01"/><rect class="cls-3" x="190.8" y="134.01" width="13.01" height="13.01"/><rect class="cls-3" x="206.41" y="134.01" width="13.01" height="13.01"/></svg>