<svg id="Layer_1" data-name="Layer 1" xmlns="http://www.w3.org/2000/svg" viewBox="0 0 283.46 283.46"><defs><style>.cls-1{fill:#fff;}.cls-2{fill:#1d3d6e;}.cls-3{fill:#e1a95f;}</style></defs><title>Favicon</title><rect class="cls-1" width="283" height="283"/><path class="cls-2" d="M43.32,173a4.1,4.1,0,0,1-4.16-4.16V114.62a4,4,0,0,1,1.2-3,4.1,4.1,0,0,1,3-1.16H57.82a33.15,33.15,0,0,1,12.53,2.28,28.79,28.79,0,0,1,16.22,16.38,36.48,36.48,0,0,1,0,25.18,28.7,28.7,0,0,1-16.22,16.42A33.15,33.15,0,0,1,57.82,173Zm4.16-7.37H57.82a22.75,22.75,0,0,0,11.89-3.08,22,22,0,0,0,8.13-8.49,27.39,27.39,0,0,0,0-24.78,21.8,21.8,0,0,0-8.13-8.41,23,23,0,0,0-11.89-3H47.49Z"/><path class="cls-2" d="M110,173a4.1,4.1,0,0,1-4.16-4.16V114.62a4,4,0,0,1,1.2-3,4.1,4.1,0,0,1,3-1.16h36.19a4.09,4.09,0,0,1,3,1.08,3.77,3.77,0,0,1,1.12,2.84,3.54,3.54,0,0,1-1.12,2.72,4.18,4.18,0,0,1-3,1h-32v19.46h23a4.09,4.09,0,0,1,3,1.08,4,4,0,0,1,0,5.53,4.09,4.09,0,0,1-3,1.08h-23v20h32a4.19,4.19,0,0,1,3,1,3.54,3.54,0,0,1,1.12,2.72,3.77,3.77,0,0,1-1.12,2.84,4.09,4.09,0,0,1-3,1.08Z"/><path class="cls-3" d="M243.26,156.26a3.54,3.54,0,0,1-5,0L202.5,120.51l-35.76,35.75a3.54,3.54,0,0,1-5,0,3.55,3.55,0,0,1,0-5l40.75-40.75,0,0,0,0,40.74,40.75A3.55,3.55,0,0,1,243.26,156.26Z"/><rect class="cls-3" x="188.16" y="145.61" width="12.24" height="12.24"/><rect class="cls-3" x="202.85" y="145.61" width="12.24" height="12.24"/><rect class="cls-3" x="188.16" y="160.29" width="12.24" height="12.24"/><rect class="cls-3" x="202.85" y="160.29" width="12.24" height="12.24"/></svg>