<svg id="Layer_1" data-name="Layer 1" xmlns="http://www.w3.org/2000/svg" viewBox="0 0 1080 264"><defs><style>.cls-1{fill:#fff;}</style></defs><title>Logo</title><path class="cls-1" d="M125.57,163.13a6.48,6.48,0,0,1-6.57-6.57V71a6.3,6.3,0,0,1,1.9-4.74,6.47,6.47,0,0,1,4.68-1.83h22.89A52.34,52.34,0,0,1,168.25,68a45.45,45.45,0,0,1,25.6,25.86,53.7,53.7,0,0,1,3.54,19.85,54.17,54.17,0,0,1-3.54,19.91,45.32,45.32,0,0,1-25.6,25.92,52.34,52.34,0,0,1-19.79,3.6Zm6.57-11.63h16.31a35.92,35.92,0,0,0,18.78-4.87,34.74,34.74,0,0,0,12.83-13.4,40,40,0,0,0,4.68-19.53,39.9,39.9,0,0,0-4.68-19.6,34.42,34.42,0,0,0-12.83-13.28A36.31,36.31,0,0,0,148.46,76H132.15Z"/><path class="cls-1" d="M230.89,163.13a6.48,6.48,0,0,1-6.57-6.57V71a6.3,6.3,0,0,1,1.9-4.74,6.47,6.47,0,0,1,4.68-1.83H288a6.46,6.46,0,0,1,4.68,1.71,6,6,0,0,1,1.77,4.49,5.59,5.59,0,0,1-1.77,4.3A6.6,6.6,0,0,1,288,76.52H237.47v30.72h36.29a6.46,6.46,0,0,1,4.68,1.71,6.26,6.26,0,0,1,0,8.73,6.46,6.46,0,0,1-4.68,1.71H237.47V151H288a6.61,6.61,0,0,1,4.68,1.64,5.6,5.6,0,0,1,1.77,4.3,6,6,0,0,1-1.77,4.49,6.46,6.46,0,0,1-4.68,1.71Z"/><path class="cls-1" d="M474.67,163.13a6.48,6.48,0,0,1-6.57-6.57V71a6.3,6.3,0,0,1,1.9-4.74,6.47,6.47,0,0,1,4.68-1.83h22.89A52.34,52.34,0,0,1,517.35,68a45.45,45.45,0,0,1,25.6,25.86,53.69,53.69,0,0,1,3.54,19.85,54.16,54.16,0,0,1-3.54,19.91,45.32,45.32,0,0,1-25.6,25.92,52.34,52.34,0,0,1-19.79,3.6Zm6.57-11.63h16.31a35.92,35.92,0,0,0,18.78-4.87,34.74,34.74,0,0,0,12.83-13.4,40,40,0,0,0,4.68-19.53,39.9,39.9,0,0,0-4.68-19.6,34.42,34.42,0,0,0-12.83-13.28A36.31,36.31,0,0,0,497.56,76H481.25Z"/><path class="cls-1" d="M580,163.13a6.48,6.48,0,0,1-6.57-6.57V71a6.3,6.3,0,0,1,1.9-4.74A6.47,6.47,0,0,1,580,64.38h57.15a6.46,6.46,0,0,1,4.68,1.71,6,6,0,0,1,1.77,4.49,5.59,5.59,0,0,1-1.77,4.3,6.6,6.6,0,0,1-4.68,1.64H586.57v30.72h36.29a6.46,6.46,0,0,1,4.68,1.71,6.26,6.26,0,0,1,0,8.73,6.46,6.46,0,0,1-4.68,1.71H586.57V151h50.57a6.61,6.61,0,0,1,4.68,1.64,5.59,5.59,0,0,1,1.77,4.3,6,6,0,0,1-1.77,4.49,6.46,6.46,0,0,1-4.68,1.71Z"/><path class="cls-1" d="M712.5,164.39a47.66,47.66,0,0,1-34.71-14.6,49.9,49.9,0,0,1-10.37-16.12,52.8,52.8,0,0,1-3.73-20,52,52,0,0,1,3.73-19.79,50.13,50.13,0,0,1,10.37-16.06A48.66,48.66,0,0,1,693.28,67a47,47,0,0,1,19.22-3.92,49.54,49.54,0,0,1,16.75,2.53A48.26,48.26,0,0,1,743.35,74a7,7,0,0,1,1.58,1.58,4.83,4.83,0,0,1,.76,1.64,8.87,8.87,0,0,1,.19,2,5.2,5.2,0,0,1-1.71,4,6.57,6.57,0,0,1-8.79.19,37.55,37.55,0,0,0-9.67-6.2Q720.71,75,712.5,75a33.07,33.07,0,0,0-14,3,37.05,37.05,0,0,0-11.57,8.34,38.48,38.48,0,0,0-7.78,12.33,42.09,42.09,0,0,0,0,30.09,38.48,38.48,0,0,0,7.78,12.33,36.18,36.18,0,0,0,11.57,8.28,34.69,34.69,0,0,0,26.24.76A47,47,0,0,0,735.76,144a6.65,6.65,0,0,1,4.49-1.45,5.68,5.68,0,0,1,3.73,1.77,6,6,0,0,1,1.52,4.36,6.32,6.32,0,0,1-.51,2.47,6.91,6.91,0,0,1-1.52,2.21,50.78,50.78,0,0,1-14.6,8.22A48.28,48.28,0,0,1,712.5,164.39Z"/><path class="cls-1" d="M818.45,164.39a53.88,53.88,0,0,1-20.36-3.73,46.16,46.16,0,0,1-15.87-10.49,47.56,47.56,0,0,1-10.31-16.06,55.14,55.14,0,0,1-3.67-20.42,54.66,54.66,0,0,1,3.67-20.36,47.73,47.73,0,0,1,10.31-16,46.22,46.22,0,0,1,15.87-10.49,57.25,57.25,0,0,1,40.65,0A46.62,46.62,0,0,1,865,93.33a54.68,54.68,0,0,1,3.67,20.36A55.16,55.16,0,0,1,865,134.11a46.48,46.48,0,0,1-26.24,26.55A53.41,53.41,0,0,1,818.45,164.39Zm0-11.89a37.76,37.76,0,0,0,15.11-3A36.1,36.1,0,0,0,853.29,129a44.42,44.42,0,0,0,0-30.6,36.34,36.34,0,0,0-7.78-12.33,35.7,35.7,0,0,0-11.95-8.16,40.71,40.71,0,0,0-30.22,0,35,35,0,0,0-11.89,8.16,37.6,37.6,0,0,0-7.78,12.33,43.46,43.46,0,0,0,0,30.6,37.56,37.56,0,0,0,7.78,12.33,35.7,35.7,0,0,0,11.89,8.22A37.75,37.75,0,0,0,818.45,152.5Z"/><path class="cls-1" d="M902.15,163.13a6.48,6.48,0,0,1-6.57-6.57V71a6.3,6.3,0,0,1,1.9-4.74,6.47,6.47,0,0,1,4.68-1.83h22.76a34.67,34.67,0,0,1,16.82,4A29.19,29.19,0,0,1,953.17,79.3a31.23,31.23,0,0,1,4.11,16.18,28.08,28.08,0,0,1-15.55,25.79,36.07,36.07,0,0,1-16.82,3.79H908.73v31.48a6.47,6.47,0,0,1-1.83,4.68A6.31,6.31,0,0,1,902.15,163.13Zm6.58-50.2h16.18a22.61,22.61,0,0,0,10.24-2.21,17.12,17.12,0,0,0,7-6.2,16.51,16.51,0,0,0,2.53-9,19.09,19.09,0,0,0-2.53-9.86,17.76,17.76,0,0,0-7-6.7,21.15,21.15,0,0,0-10.24-2.4H908.73Zm45.9,50.2a6.86,6.86,0,0,1-3.23-.76,6.37,6.37,0,0,1-2.47-2.4L926.17,123.3l12.77-3.67L959.68,153q2.27,3.67.63,6.89A5.85,5.85,0,0,1,954.62,163.13Z"/><path class="cls-1" d="M441.27,136.69a5.59,5.59,0,0,1-7.92,0L376.9,80.24l-56.46,56.45a5.59,5.59,0,0,1-7.92,0,5.61,5.61,0,0,1,0-7.91l64.34-64.34,0,0,0,0,64.33,64.34A5.6,5.6,0,0,1,441.27,136.69Z"/><rect class="cls-1" x="354.26" y="119.87" width="19.33" height="19.33"/><rect class="cls-1" x="377.45" y="119.87" width="19.33" height="19.33"/><rect class="cls-1" x="354.26" y="143.06" width="19.33" height="19.33"/><rect class="cls-1" x="377.45" y="143.06" width="19.33" height="19.33"/><path class="cls-1" d="M597.28,197.29a8.55,8.55,0,0,1,.55,9.9,8.93,8.93,0,0,1-3.81,3.21,13.45,13.45,0,0,1-5.8,1.17H574.9v-33.3h12.7a13.63,13.63,0,0,1,5.85,1.15,8.58,8.58,0,0,1,3.69,3.09,7.86,7.86,0,0,1,1.25,4.34,7.42,7.42,0,0,1-1.53,4.79,8.92,8.92,0,0,1-4.12,2.83A7.37,7.37,0,0,1,597.28,197.29Zm-16.91-5h6.76a6.49,6.49,0,0,0,4.19-1.22,4.27,4.27,0,0,0,1.51-3.52,4.35,4.35,0,0,0-1.51-3.52,6.32,6.32,0,0,0-4.19-1.27h-6.76Zm11.74,13.51a4.63,4.63,0,0,0,1.58-3.74,4.85,4.85,0,0,0-1.68-3.88,6.61,6.61,0,0,0-4.46-1.44h-7.19v10.4h7.38A6.53,6.53,0,0,0,592.1,205.77Z"/><path class="cls-1" d="M632.45,185.17v26.4H627v-3.11A8.84,8.84,0,0,1,623.6,211a10.72,10.72,0,0,1-4.43.93,11.84,11.84,0,0,1-5.58-1.29,9.33,9.33,0,0,1-3.88-3.83,12.44,12.44,0,0,1-1.41-6.13V185.17h5.42v14.71a7.66,7.66,0,0,0,1.77,5.44,6.31,6.31,0,0,0,4.84,1.89,6.39,6.39,0,0,0,4.86-1.89,7.59,7.59,0,0,0,1.8-5.44V185.17Z"/><path class="cls-1" d="M643.37,180.66a3.5,3.5,0,0,1,2.49-6,3.33,3.33,0,0,1,2.44,1,3.59,3.59,0,0,1,0,5,3.33,3.33,0,0,1-2.44,1A3.38,3.38,0,0,1,643.37,180.66Zm5.17,4.5v26.4h-5.46v-26.4Z"/><path class="cls-1" d="M664.64,176.11v35.46h-5.46V176.11Z"/><path class="cls-1" d="M675.11,191.2A12,12,0,0,1,686,184.74a12.39,12.39,0,0,1,5.1,1.13,10.44,10.44,0,0,1,4,3V176.11h5.51v35.46h-5.51v-4a10.22,10.22,0,0,1-3.71,3.16,11.53,11.53,0,0,1-5.44,1.25,11.81,11.81,0,0,1-6.3-1.75,12.34,12.34,0,0,1-4.5-4.89,15,15,0,0,1-1.65-7.12A14.6,14.6,0,0,1,675.11,191.2Zm18.83,2.4a7.91,7.91,0,0,0-2.95-3.07,7.71,7.71,0,0,0-3.93-1.05,7.85,7.85,0,0,0-3.93,1,7.76,7.76,0,0,0-2.95,3,9.42,9.42,0,0,0-1.13,4.72,9.83,9.83,0,0,0,1.13,4.79,7.94,7.94,0,0,0,3,3.14,7.62,7.62,0,0,0,3.9,1.08A7.7,7.7,0,0,0,691,206.2a7.85,7.85,0,0,0,2.95-3.09,9.69,9.69,0,0,0,1.13-4.77A9.56,9.56,0,0,0,693.94,193.6Z"/><path class="cls-1" d="M749.5,197.29a8.55,8.55,0,0,1,.55,9.9,8.93,8.93,0,0,1-3.81,3.21,13.45,13.45,0,0,1-5.8,1.17H727.13v-33.3h12.7a13.63,13.63,0,0,1,5.85,1.15,8.58,8.58,0,0,1,3.69,3.09,7.86,7.86,0,0,1,1.25,4.34,7.42,7.42,0,0,1-1.53,4.79,8.92,8.92,0,0,1-4.12,2.83A7.37,7.37,0,0,1,749.5,197.29Zm-16.91-5h6.76a6.49,6.49,0,0,0,4.19-1.22,4.27,4.27,0,0,0,1.51-3.52,4.35,4.35,0,0,0-1.51-3.52,6.32,6.32,0,0,0-4.19-1.27h-6.76Zm11.74,13.51a4.63,4.63,0,0,0,1.58-3.74,4.85,4.85,0,0,0-1.68-3.88,6.61,6.61,0,0,0-4.46-1.44h-7.19v10.4H740A6.53,6.53,0,0,0,744.33,205.77Z"/><path class="cls-1" d="M784.77,200.4H764.59a7.32,7.32,0,0,0,2.35,5.08,7.41,7.41,0,0,0,5.17,1.92,6.39,6.39,0,0,0,6.23-3.69h5.89a11.89,11.89,0,0,1-4.34,6,12.72,12.72,0,0,1-7.79,2.32,13.47,13.47,0,0,1-6.78-1.7,12.1,12.1,0,0,1-4.7-4.79,14.62,14.62,0,0,1-1.7-7.16,15,15,0,0,1,1.65-7.16,11.62,11.62,0,0,1,4.65-4.77,13.84,13.84,0,0,1,6.88-1.68,13.44,13.44,0,0,1,6.66,1.63,11.52,11.52,0,0,1,4.55,4.58,13.79,13.79,0,0,1,1.63,6.78A17.1,17.1,0,0,1,784.77,200.4ZM779.26,196a6.22,6.22,0,0,0-2.16-4.84,7.72,7.72,0,0,0-5.22-1.82,7,7,0,0,0-4.84,1.8,7.51,7.51,0,0,0-2.4,4.86Z"/><path class="cls-1" d="M793.61,191.2a12,12,0,0,1,10.8-6.47,11.52,11.52,0,0,1,5.44,1.22,11.05,11.05,0,0,1,3.71,3v-3.83h5.51v26.4h-5.51v-3.93a10.85,10.85,0,0,1-3.78,3.11,12.25,12.25,0,0,1-11.69-.5,12.4,12.4,0,0,1-4.48-4.89,15,15,0,0,1-1.65-7.12A14.6,14.6,0,0,1,793.61,191.2Zm18.83,2.4a7.91,7.91,0,0,0-2.95-3.07,7.71,7.71,0,0,0-3.93-1.05,7.85,7.85,0,0,0-3.93,1,7.76,7.76,0,0,0-2.95,3,9.42,9.42,0,0,0-1.13,4.72,9.83,9.83,0,0,0,1.13,4.79,7.94,7.94,0,0,0,3,3.14,7.62,7.62,0,0,0,3.9,1.08,7.7,7.7,0,0,0,3.93-1.05,7.85,7.85,0,0,0,2.95-3.09,9.69,9.69,0,0,0,1.13-4.77A9.56,9.56,0,0,0,812.44,193.6Z"/><path class="cls-1" d="M853.62,185.17v26.4h-5.46v-3.11a8.84,8.84,0,0,1-3.38,2.56,10.72,10.72,0,0,1-4.43.93,11.84,11.84,0,0,1-5.58-1.29,9.33,9.33,0,0,1-3.88-3.83,12.44,12.44,0,0,1-1.41-6.13V185.17h5.42v14.71a7.66,7.66,0,0,0,1.77,5.44,6.31,6.31,0,0,0,4.84,1.89,6.39,6.39,0,0,0,4.86-1.89,7.59,7.59,0,0,0,1.8-5.44V185.17Z"/><path class="cls-1" d="M870.63,189.62v14.61a2.8,2.8,0,0,0,.69,2.13,3.45,3.45,0,0,0,2.37.65h3.35v4.55h-4.31a8.31,8.31,0,0,1-5.65-1.73q-2-1.73-2-5.61V189.62H862v-4.46h3.12V178.6h5.51v6.56h6.42v4.46Z"/><path class="cls-1" d="M885.82,180.66a3.5,3.5,0,0,1,2.49-6,3.33,3.33,0,0,1,2.44,1,3.59,3.59,0,0,1,0,5,3.33,3.33,0,0,1-2.44,1A3.38,3.38,0,0,1,885.82,180.66Zm5.17,4.5v26.4h-5.46v-26.4Z"/><path class="cls-1" d="M912.7,189.62h-4.89v21.95H902.3V189.62h-3.11v-4.46h3.11V183.3q0-4.55,2.42-6.64t7.59-2.08v4.55a5.13,5.13,0,0,0-3.5.93,4.29,4.29,0,0,0-1,3.23v1.87h4.89Z"/><path class="cls-1" d="M944.9,185.17v26.4h-5.46v-3.11a8.84,8.84,0,0,1-3.38,2.56,10.72,10.72,0,0,1-4.43.93,11.84,11.84,0,0,1-5.58-1.29,9.33,9.33,0,0,1-3.88-3.83,12.44,12.44,0,0,1-1.41-6.13V185.17h5.42v14.71a7.66,7.66,0,0,0,1.77,5.44,6.31,6.31,0,0,0,4.84,1.89,6.39,6.39,0,0,0,4.86-1.89,7.59,7.59,0,0,0,1.8-5.44V185.17Z"/><path class="cls-1" d="M961,176.11v35.46h-5.46V176.11Z"/></svg>